<?xml version="1.0" encoding="utf-8"?>
<!-- Generator: Adobe Illustrator 22.0.0, SVG Export Plug-In . SVG Version: 6.00 Build 0)  -->
<svg version="1.1" id="Слой_1" xmlns="http://www.w3.org/2000/svg" xmlns:xlink="http://www.w3.org/1999/xlink" x="0px" y="0px"
	 viewBox="0 0 76 76" style="enable-background:new 0 0 76 76;" xml:space="preserve">
<style type="text/css">
	.st0{clip-path:url(#SVGID_2_);}
	.st1{fill:#FFFFFF;fill-opacity:1.000000e-02;}
	.st2{fill:url(#SVGID_3_);}
	.st3{fill:url(#SVGID_4_);}
	.st4{fill:url(#SVGID_5_);}
</style>
<g>
	<defs>
		<rect id="SVGID_1_" width="76" height="76"/>
	</defs>
	<clipPath id="SVGID_2_">
		<use xlink:href="#SVGID_1_"  style="overflow:visible;"/>
	</clipPath>
	<g class="st0">
		<rect class="st1" width="76" height="76"/>
		
			<linearGradient id="SVGID_3_" gradientUnits="userSpaceOnUse" x1="51.2761" y1="38.959" x2="51.2761" y2="35.5257" gradientTransform="matrix(1 0 0 -1 0 78)">
			<stop  offset="0" style="stop-color:#3CB434"/>
			<stop  offset="1" style="stop-color:#5BAB00"/>
		</linearGradient>
		<path class="st2" d="M53.7,40c0-0.5-0.4-1-0.9-1c-0.5,0-0.9,0.4-0.9,1c0,0.3-0.3,0.6-0.6,0.6s-0.6-0.3-0.6-0.6c0-0.5-0.4-1-0.9-1
			c-0.5,0-0.9,0.4-0.9,1c0,1.4,1.1,2.5,2.4,2.5S53.7,41.4,53.7,40z"/>
		
			<linearGradient id="SVGID_4_" gradientUnits="userSpaceOnUse" x1="38" y1="63" x2="38" y2="17" gradientTransform="matrix(1 0 0 -1 0 78)">
			<stop  offset="0" style="stop-color:#3CB434"/>
			<stop  offset="1" style="stop-color:#5BAB00"/>
		</linearGradient>
		<path class="st3" d="M59.1,39.2l-1.9-0.6c-0.2-0.1-0.3-0.2-0.3-0.3c-0.4-1.3-1-2.5-1.8-3.6c-0.3-0.5-0.7-0.9-1.1-1.3
			c0.3-1.2,0.4-2.6,0.4-3.7c0-1.8-0.4-2.9-1.2-3.3c-0.4-0.2-1.6-0.8-7.6,2c-0.1,0.1-0.2,0.1-0.3,0.2c-0.3-0.1-0.6-0.2-0.9-0.2
			c0.4-1,0.7-2.1,0.7-3.2c0-0.3-0.1-0.5-0.2-0.7c-0.2-0.2-0.4-0.3-0.6-0.3c-0.2,0-0.5,0.1-0.7,0.2s-0.3,0.4-0.3,0.7
			c-0.1,1.9-0.9,3.7-2.2,5c-0.8,0.8-1.6,1.3-2.6,1.7c-1.7-0.2-3.5-0.2-5.3,0c-1-0.4-1.9-1-2.6-1.7c-1.4-1.4-2.2-3.3-2.2-5.4
			c0-2,0.8-3.9,2.2-5.4c1.4-1.4,3.3-2.2,5.3-2.2s3.9,0.8,5.3,2.2c0.6,0.6,1,1.2,1.4,2c0.1,0.2,0.3,0.4,0.5,0.5
			c0.2,0.1,0.5,0.1,0.7-0.1c0.2-0.1,0.4-0.3,0.5-0.6c0.1-0.2,0.1-0.5-0.1-0.7c-0.4-0.9-1-1.7-1.7-2.4C40.6,16,38.2,15,35.8,15
			c-2.5,0-4.8,1-6.6,2.8c-1.8,1.8-2.7,4.2-2.7,6.7c0,2.5,1,4.9,2.7,6.7c0.4,0.4,0.7,0.7,1.2,1c-0.2,0.1-0.5,0.1-0.7,0.2
			c-0.5,0.2-0.7,0.7-0.6,1.2c0.2,0.5,0.7,0.8,1.2,0.6c3.6-1.2,7.5-1.2,11,0c0.1,0,0.2,0,0.3,0c0.4,0,0.8-0.3,0.9-0.6
			c0.2-0.5-0.1-1-0.6-1.2c-0.2-0.1-0.4-0.1-0.7-0.2c0.4-0.3,0.8-0.6,1.2-1c0.4-0.4,0.8-0.9,1.1-1.3c0.1,0,0.2,0.1,0.4,0.1
			c0.1,0,0.3,0.1,0.5,0.1c-0.3,1.5-0.3,2.9,0.1,4.1c0.3,1.1,1,2,1.8,2.7c1,0.7,2.2,1.1,3.4,1.1c0.9,0,1.6-0.2,2.2-0.5
			c0.6-0.3,1.1-1,1.5-2c0.1,0.1,0.2,0.2,0.2,0.3c0.7,0.9,1.2,2,1.5,3.1c0.2,0.8,0.8,1.3,1.5,1.6l1.9,0.6c0.4,0.1,0.6,0.5,0.6,0.9V45
			c0,0.4-0.3,0.8-0.6,0.9l-3,1c-0.5,0.2-1,0.6-1.3,1.1c-1.2,2-3,3.7-5.4,5c-0.4,0.2-0.6,0.5-0.7,0.9l-1,5.2c0,0,0,0,0,0H44
			c0,0,0,0,0,0l-0.5-2.9c-0.1-0.7-0.8-1.2-1.5-1.1c-1.3,0.2-2.7,0.3-4.1,0.3c-1,0-2-0.1-3-0.2c-0.7-0.1-1.3,0.4-1.4,1.1l-0.5,2.7
			c0,0,0,0,0,0h-3.1c0,0,0,0,0,0l-0.9-4.9c-0.1-0.4-0.3-0.7-0.7-0.9c-4.1-2.2-6.3-6-6.3-10.9c0-2.5,0.5-4.6,1.6-6.5
			c1-1.7,2.4-3.1,4.2-4.2c0.4-0.3,0.6-0.8,0.3-1.3c-0.3-0.5-0.8-0.6-1.3-0.3c-3.3,2-5.5,5-6.3,8.7c0-0.1-0.1-0.2-0.1-0.3
			c-0.4-1.1-1.3-1.8-2.2-2c-0.8-0.1-1.5,0.2-2,0.9c-0.7,1-0.6,1.7-0.4,2.2c0.3,0.7,1.1,1.2,2.4,1.6c-0.7,0.9-1.6,1.1-2.1,1.1
			c-0.6,0-1,0.4-1,1c0,0.5,0.4,1,0.9,1c0.1,0,0.1,0,0.2,0c0.9,0,2.3-0.4,3.6-2c0.1-0.2,0.2-0.3,0.3-0.5c0,0.2,0,0.5,0,0.7
			c0,2.9,0.7,5.4,2,7.6c1.2,2,2.9,3.6,5.1,4.8l0.9,4.6c0.2,0.9,1,1.6,1.9,1.6h3.1c0.9,0,1.7-0.7,1.9-1.6l0.4-2.2
			c0.9,0.1,1.8,0.1,2.7,0.1c1.3,0,2.6-0.1,3.8-0.3l0.4,2.3c0.2,0.9,1,1.6,1.9,1.6h3.1c0.9,0,1.7-0.7,1.9-1.6l0.9-4.9
			c2.6-1.4,4.6-3.3,5.9-5.6c0.1-0.1,0.2-0.2,0.2-0.2l3-1c1.1-0.4,1.9-1.5,1.9-2.7v-3.2C61,40.6,60.2,39.5,59.1,39.2z M52.4,31.4
			c-0.3,2.3-1,4-1.5,4.3c-1.1,0.6-2.9,0.1-3.6-0.5c-1.3-0.9-1.7-2.7-1.2-5c0-0.2,0.2-0.3,0.3-0.4c3.2-1.5,5.1-2,5.8-2
			c0,0,0.1,0,0.1,0C52.4,28.2,52.6,29.3,52.4,31.4z M18.6,39.3c-0.8-0.2-1.1-0.4-1.2-0.5c0,0,0-0.1,0.2-0.3c0.1-0.2,0.2-0.2,0.2-0.2
			c0,0,0,0,0,0c0.2,0,0.6,0.3,0.7,0.8C18.5,39.2,18.6,39.3,18.6,39.3z"/>
		
			<linearGradient id="SVGID_5_" gradientUnits="userSpaceOnUse" x1="35.9045" y1="58.6611" x2="35.9045" y2="48.3614" gradientTransform="matrix(1 0 0 -1 0 78)">
			<stop  offset="0" style="stop-color:#3CB434"/>
			<stop  offset="1" style="stop-color:#5BAB00"/>
		</linearGradient>
		<path class="st4" d="M36,29.6c0.3,0,0.6-0.3,0.6-0.5v-0.2c1.3-0.3,2.1-1.2,2.1-2.7c0-1.7-1.1-2.3-2.1-2.7v-1.9
			c0.3,0.1,0.5,0.2,0.6,0.2c0.2,0.1,0.3,0.2,0.5,0.2c0.5,0,0.8-0.6,0.8-1c0-0.3-0.1-0.6-0.8-0.9c-0.3-0.1-0.7-0.2-1.1-0.2v-0.1
			c0-0.3-0.3-0.5-0.6-0.5c-0.3,0-0.6,0.2-0.6,0.5V20c-1.4,0.2-2.2,1.1-2.2,2.5c0,1.6,1.2,2.1,2.2,2.5v2.3c-0.5-0.1-0.8-0.4-1-0.6
			c-0.2-0.2-0.4-0.3-0.6-0.3c-0.4,0-0.8,0.5-0.8,1c0,0.7,1,1.5,2.4,1.7v0.1C35.4,29.4,35.7,29.6,36,29.6z M34.9,22.3
			c0-0.1,0-0.5,0.6-0.7v1.4C35.1,22.9,34.9,22.7,34.9,22.3z M37.1,26.4c0,0.4-0.2,0.7-0.5,0.8v-1.7C36.9,25.7,37.1,25.9,37.1,26.4z"
			/>
	</g>
</g>
</svg>
