<?xml version="1.0" encoding="utf-8"?>
<!-- Generator: Adobe Illustrator 22.0.0, SVG Export Plug-In . SVG Version: 6.00 Build 0)  -->
<svg version="1.1" id="Слой_1" xmlns="http://www.w3.org/2000/svg" xmlns:xlink="http://www.w3.org/1999/xlink" x="0px" y="0px"
	 viewBox="0 0 76 76" style="enable-background:new 0 0 76 76;" xml:space="preserve">
<style type="text/css">
	.st0{fill:#FFFFFF;fill-opacity:1.000000e-02;}
	.st1{fill:url(#SVGID_1_);}
</style>
<rect class="st0" width="76" height="76"/>
<linearGradient id="SVGID_1_" gradientUnits="userSpaceOnUse" x1="37.7213" y1="67.9502" x2="37.7213" y2="11.8752" gradientTransform="matrix(1 0 0 -1 0 78)">
	<stop  offset="0" style="stop-color:#3CB434"/>
	<stop  offset="1" style="stop-color:#5BAB00"/>
</linearGradient>
<path class="st1" d="M55.1,37.1h-1.2v-3.9c1-0.2,2-0.6,2.8-1.3s1.4-1.5,1.8-2.4c0.4-1,0.5-2,0.4-3c-0.1-1-0.5-2-1.1-2.9
	c0.2-0.8,0.2-1.6,0-2.3c-0.2-0.8-0.5-1.5-1-2.1c0.2-0.6,0.2-1.3,0.1-1.9c-0.1-0.6-0.4-1.2-0.8-1.8c-0.4-0.5-0.9-0.9-1.5-1.2
	c-0.6-0.3-1.2-0.4-1.9-0.4c-0.7,0-1.3,0.2-1.9,0.4c-0.6,0.3-1.1,0.7-1.5,1.2c-0.4,0.5-0.7,1.1-0.8,1.8c-0.1,0.6-0.1,1.3,0.1,1.9
	c-0.5,0.6-0.8,1.3-1,2.1c-0.2,0.8-0.2,1.6,0,2.3c-0.6,0.9-1,1.9-1.1,2.9c-0.1,1.1,0.1,2.1,0.5,3.1c0.4,1,1.1,1.8,2,2.4
	c0.9,0.6,1.9,1,2.9,1.2v3.8H38.9v-5.7c1.1-0.2,2.2-0.7,3.1-1.4s1.6-1.6,2-2.7c0.4-1.1,0.6-2.2,0.5-3.3c-0.1-1.1-0.5-2.2-1.2-3.1
	c0.2-0.8,0.2-1.7,0-2.6c-0.2-0.9-0.6-1.7-1.1-2.3c0.2-0.7,0.2-1.4,0.1-2.1c-0.1-0.7-0.4-1.4-0.9-1.9c-0.4-0.6-1-1-1.6-1.3
	c-0.6-0.3-1.3-0.5-2.1-0.5c-0.7,0-1.4,0.2-2.1,0.5c-0.6,0.3-1.2,0.8-1.6,1.3c-0.4,0.6-0.7,1.2-0.9,1.9c-0.1,0.7-0.1,1.4,0.1,2.1
	c-0.5,0.7-0.9,1.5-1.1,2.3c-0.2,0.9-0.2,1.7,0,2.6c-0.7,1-1.1,2.1-1.2,3.2c-0.1,1.2,0.1,2.3,0.6,3.4c0.5,1.1,1.2,2,2.2,2.7
	c0.9,0.7,2.1,1.1,3.2,1.3v5.7H23.7v-3.7c1-0.2,2-0.6,2.8-1.3c0.8-0.7,1.4-1.5,1.8-2.4c0.4-1,0.5-2,0.4-3c-0.1-1-0.5-2-1.1-2.9
	c0.2-0.8,0.2-1.6,0-2.3c-0.2-0.8-0.5-1.5-1-2.1c0.2-0.6,0.2-1.3,0.1-1.9c-0.1-0.6-0.4-1.2-0.8-1.8c-0.4-0.5-0.9-0.9-1.5-1.2
	c-0.6-0.3-1.2-0.4-1.9-0.4c-0.7,0-1.3,0.2-1.9,0.4s-1.1,0.7-1.5,1.2c-0.4,0.5-0.7,1.1-0.8,1.8s-0.1,1.3,0.1,1.9
	c-0.5,0.6-0.8,1.3-1,2.1c-0.2,0.8-0.2,1.6,0,2.3c-0.6,0.9-1,1.9-1.1,2.9c-0.1,1.1,0.1,2.1,0.5,3.1c0.4,1,1.1,1.8,2,2.4
	c0.9,0.6,1.9,1,2.9,1.2v3.6h-2.2c-0.2,0-0.4,0.1-0.5,0.2c-0.2,0.1-0.3,0.2-0.3,0.4c-1.1,2.6-1.7,5.4-1.7,8.3c0,2.8,0.6,5.7,1.8,8.3
	c0,0,0,0,0,0c0,0,0,0,0,0c1.6,3.6,4.2,6.6,7.5,8.7c3.3,2.1,7.1,3.2,11,3.2c11.2,0,20.3-9.1,20.3-20.3c0-2.8-0.6-5.6-1.7-8.2
	c-0.1-0.2-0.2-0.3-0.3-0.4C55.5,37.1,55.3,37.1,55.1,37.1z M48.5,27.1c0-1,0.3-2,1-2.7c0.1-0.1,0.2-0.3,0.2-0.4c0-0.2,0-0.3,0-0.5
	c-0.2-0.6-0.2-1.2-0.1-1.8c0.1-0.6,0.4-1.2,0.9-1.6c0.1-0.1,0.2-0.3,0.2-0.5c0-0.2,0-0.4-0.1-0.5c-0.2-0.4-0.2-0.8-0.2-1.2
	c0-0.4,0.2-0.8,0.4-1.1c0.2-0.3,0.5-0.6,0.9-0.8c0.3-0.2,0.7-0.3,1.1-0.3c0.4,0,0.8,0.1,1.1,0.3c0.3,0.2,0.6,0.5,0.9,0.8
	c0.2,0.3,0.4,0.7,0.4,1.1c0,0.4,0,0.8-0.2,1.2c-0.1,0.2-0.1,0.4-0.1,0.5c0,0.2,0.1,0.3,0.2,0.5c0.4,0.4,0.7,1,0.9,1.6
	c0.1,0.6,0.1,1.2-0.1,1.8c-0.1,0.2-0.1,0.3,0,0.5c0,0.2,0.1,0.3,0.2,0.4c0.5,0.6,0.8,1.2,0.9,1.9c0.1,0.7,0.1,1.4-0.1,2.1
	c-0.2,0.7-0.6,1.3-1.1,1.8c-0.5,0.5-1.2,0.9-1.9,1V27l1.6-1.4c0.2-0.2,0.3-0.4,0.3-0.6c0-0.2-0.1-0.5-0.2-0.7
	c-0.2-0.2-0.4-0.3-0.6-0.3c-0.2,0-0.5,0.1-0.7,0.2l-0.3,0.3v-4.3c0-0.2-0.1-0.5-0.3-0.7c-0.2-0.2-0.4-0.3-0.7-0.3s-0.5,0.1-0.7,0.3
	c-0.2,0.2-0.3,0.4-0.3,0.7v1.5l-0.3-0.3c-0.2-0.2-0.4-0.3-0.7-0.2c-0.2,0-0.5,0.1-0.6,0.3c-0.2,0.2-0.3,0.4-0.2,0.7
	c0,0.2,0.1,0.5,0.3,0.6l1.6,1.4v3.1L51.8,27c-0.2-0.2-0.4-0.3-0.7-0.3c-0.2,0-0.5,0.1-0.7,0.3c-0.2,0.2-0.3,0.4-0.3,0.7
	c0,0.2,0.1,0.5,0.3,0.7l1.6,1.6v1.4c-1-0.2-1.9-0.7-2.5-1.5C48.9,29.1,48.5,28.1,48.5,27.1L48.5,27.1z M33,24.7
	c0-1.1,0.4-2.2,1.1-3.1c0.1-0.1,0.2-0.3,0.2-0.4c0-0.2,0-0.3,0-0.5c-0.2-0.7-0.3-1.4-0.1-2.1c0.2-0.7,0.5-1.3,1-1.8
	c0.1-0.1,0.2-0.3,0.2-0.5c0-0.2,0-0.4-0.1-0.5c-0.2-0.4-0.2-0.9-0.2-1.3c0-0.5,0.2-0.9,0.4-1.3c0.3-0.4,0.6-0.7,1-0.9
	s0.8-0.3,1.3-0.3c0.5,0,0.9,0.1,1.3,0.3s0.7,0.5,1,0.9s0.4,0.8,0.4,1.3c0,0.5,0,0.9-0.2,1.3c-0.1,0.2-0.1,0.4-0.1,0.5
	c0,0.2,0.1,0.3,0.2,0.5c0.5,0.5,0.8,1.1,1,1.8c0.2,0.7,0.1,1.4-0.1,2.1c-0.1,0.2-0.1,0.3,0,0.5c0,0.2,0.1,0.3,0.2,0.4
	c0.5,0.6,0.9,1.4,1,2.2c0.1,0.8,0.1,1.7-0.2,2.4c-0.3,0.8-0.7,1.5-1.3,2s-1.4,0.9-2.2,1.1v-4.2l1.6-1.6c0.2-0.2,0.3-0.4,0.3-0.7
	c0-0.2-0.1-0.5-0.3-0.7c-0.2-0.2-0.4-0.3-0.7-0.3c-0.2,0-0.5,0.1-0.7,0.3l-0.3,0.3v-8c0-0.2-0.1-0.5-0.3-0.7
	c-0.2-0.2-0.4-0.3-0.7-0.3s-0.5,0.1-0.7,0.3c-0.2,0.2-0.3,0.4-0.3,0.7v5.2l-0.3-0.3c-0.2-0.2-0.4-0.3-0.7-0.3s-0.5,0.1-0.7,0.3
	c-0.2,0.2-0.3,0.4-0.3,0.7c0,0.2,0.1,0.5,0.3,0.7l1.6,1.6v3l-0.2-0.3c-0.1-0.1-0.2-0.2-0.3-0.2c-0.1-0.1-0.2-0.1-0.4-0.1
	c-0.1,0-0.2,0-0.4,0.1c-0.1,0-0.2,0.1-0.3,0.2c-0.1,0.1-0.2,0.2-0.2,0.3c-0.1,0.1-0.1,0.2-0.1,0.4c0,0.1,0,0.2,0.1,0.4
	c0,0.1,0.1,0.2,0.2,0.3l1.6,1.8v1.3c-1.1-0.2-2.2-0.8-2.9-1.6C33.4,27,33,25.9,33,24.7L33,24.7z M18.3,27.3c0-1,0.3-2,1-2.7
	c0.1-0.1,0.2-0.3,0.2-0.4c0-0.2,0-0.3,0-0.5c-0.2-0.6-0.2-1.2-0.1-1.8c0.1-0.6,0.4-1.2,0.9-1.6c0.1-0.1,0.2-0.3,0.2-0.5
	c0-0.2,0-0.4-0.1-0.5c-0.2-0.4-0.2-0.8-0.2-1.2c0-0.4,0.2-0.8,0.4-1.1c0.2-0.3,0.5-0.6,0.9-0.8c0.3-0.2,0.7-0.3,1.1-0.3
	c0.4,0,0.8,0.1,1.1,0.3c0.3,0.2,0.6,0.5,0.9,0.8c0.2,0.3,0.4,0.7,0.4,1.1c0,0.4,0,0.8-0.2,1.2c-0.1,0.2-0.1,0.4-0.1,0.5
	c0,0.2,0.1,0.3,0.2,0.5c0.4,0.4,0.7,1,0.9,1.6c0.1,0.6,0.1,1.2-0.1,1.8c-0.1,0.2-0.1,0.3,0,0.5c0,0.2,0.1,0.3,0.2,0.4
	c0.5,0.6,0.8,1.2,0.9,1.9c0.1,0.7,0.1,1.4-0.1,2.1c-0.2,0.7-0.6,1.3-1.1,1.8c-0.5,0.5-1.2,0.9-1.9,1v-4.3l1.6-1.4
	c0.2-0.2,0.3-0.4,0.3-0.6c0-0.2-0.1-0.5-0.2-0.7c-0.2-0.2-0.4-0.3-0.6-0.3c-0.2,0-0.5,0.1-0.7,0.2l-0.3,0.3v-4.3
	c0-0.2-0.1-0.5-0.3-0.7c-0.2-0.2-0.4-0.3-0.7-0.3c-0.2,0-0.5,0.1-0.7,0.3c-0.2,0.2-0.3,0.4-0.3,0.7v1.5l-0.3-0.3
	c-0.2-0.2-0.4-0.3-0.7-0.2c-0.2,0-0.5,0.1-0.6,0.3C20.1,21.8,20,22,20,22.3c0,0.2,0.1,0.5,0.3,0.6l1.6,1.4v3.1l-0.3-0.3
	c-0.1-0.1-0.2-0.2-0.3-0.2c-0.1,0-0.2-0.1-0.4-0.1c-0.1,0-0.2,0-0.4,0.1c-0.1,0-0.2,0.1-0.3,0.2c-0.1,0.1-0.2,0.2-0.2,0.3
	c0,0.1-0.1,0.2-0.1,0.4c0,0.1,0,0.2,0.1,0.4c0,0.1,0.1,0.2,0.2,0.3l1.6,1.6v1.4c-1-0.2-1.9-0.7-2.5-1.5
	C18.7,29.3,18.3,28.3,18.3,27.3L18.3,27.3z M20.3,38.9H34c0,0.1,0,0.2,0,0.3c0,0.7,0.3,1.3,0.7,1.8c0.5,0.5,1.1,0.7,1.8,0.7h8.1
	c0.4,0,0.8,0.2,1,0.4c0.3,0.3,0.4,0.7,0.4,1c0,0.4-0.2,0.8-0.4,1c-0.3,0.3-0.7,0.4-1,0.4H33.3c-0.7,0-1.3,0.3-1.8,0.8
	c-0.5,0.5-0.7,1.1-0.7,1.8c0,0.7,0.3,1.3,0.7,1.8c0.5,0.5,1.1,0.7,1.8,0.8h0.8c0.4,0,0.8,0.2,1,0.4c0.3,0.3,0.4,0.7,0.4,1
	c0,0.4-0.2,0.8-0.4,1c-0.3,0.3-0.7,0.4-1,0.4l-13.8,0C18.5,48.4,18.5,43.4,20.3,38.9L20.3,38.9z M38.9,62.5c0,0.4-0.2,0.9-0.5,1.2
	c-0.3,0.3-0.7,0.5-1.2,0.5c-0.2,0-0.3,0-0.5,0c0,0-0.1,0-0.1,0c-1.9-0.1-3.8-0.5-5.6-1.1c0-0.3,0.1-0.5,0.3-0.7
	c0.2-0.2,0.5-0.3,0.7-0.3h0.6c0.4,0,0.8-0.2,1.1-0.5c0.3-0.3,0.5-0.7,0.5-1.1c0-0.4,0.2-0.9,0.5-1.2c0.3-0.3,0.7-0.5,1.2-0.5h5.4
	c0.2,0,0.4,0.1,0.5,0.2c0.1,0.1,0.2,0.3,0.2,0.5c0,0.2-0.1,0.4-0.2,0.5c-0.1,0.1-0.3,0.2-0.5,0.2h-0.2c-0.3,0-0.6,0.1-0.9,0.2
	c-0.3,0.1-0.5,0.3-0.8,0.5c-0.2,0.2-0.4,0.5-0.5,0.8C38.9,61.9,38.9,62.2,38.9,62.5L38.9,62.5z M40.4,64c0.2-0.5,0.3-1,0.3-1.5
	c0-0.1,0-0.1,0-0.2s0.1-0.1,0.1-0.1c0,0,0.1-0.1,0.1-0.1c0.1,0,0.1,0,0.2,0h0.2c0.7,0,1.3-0.3,1.8-0.7c0.5-0.5,0.7-1.1,0.7-1.8
	c0-0.7-0.3-1.3-0.7-1.8c-0.5-0.5-1.1-0.7-1.8-0.7H36c-0.9,0-1.7,0.3-2.4,0.9c-0.7,0.6-1.1,1.4-1.1,2.3h-0.3c-0.6,0-1.3,0.2-1.8,0.6
	c-0.5,0.4-0.9,0.9-1.1,1.6c-3.4-1.7-6.2-4.3-8-7.6l12.9,0c0.9,0,1.7-0.4,2.4-1c0.6-0.6,1-1.5,1-2.4s-0.4-1.7-1-2.4
	c-0.6-0.6-1.5-1-2.4-1h-0.8c-0.2,0-0.3-0.1-0.5-0.2c-0.1-0.1-0.2-0.3-0.2-0.5c0-0.2,0.1-0.3,0.2-0.5c0.1-0.1,0.3-0.2,0.5-0.2h11.3
	c0.9,0,1.7-0.4,2.4-1c0.6-0.6,1-1.5,1-2.4c0-0.9-0.4-1.7-1-2.4c-0.6-0.6-1.5-1-2.4-1h-8.1c-0.2,0-0.4-0.1-0.5-0.2
	c-0.1-0.1-0.2-0.3-0.2-0.5c0-0.1,0-0.2,0.1-0.3h18.5c0.9,2.2,1.3,4.5,1.3,6.9c0,0.8,0,1.5-0.1,2.3h-11c-0.3,0-0.7,0.1-1,0.2
	s-0.6,0.3-0.8,0.6c-0.2,0.2-0.4,0.5-0.6,0.8c-0.1,0.3-0.2,0.6-0.2,1c0,0.3,0.1,0.7,0.2,1c0.1,0.3,0.3,0.6,0.6,0.8
	c0.2,0.2,0.5,0.4,0.8,0.6c0.3,0.1,0.6,0.2,1,0.2c0.1,0,0.2,0,0.3,0.1s0.2,0.1,0.2,0.1c0.1,0.1,0.1,0.1,0.1,0.2s0.1,0.2,0.1,0.3
	c0,0.7,0.3,1.3,0.7,1.8c0.5,0.5,1.1,0.7,1.8,0.7c0,0,0,0,0.1,0l1.1,0h0c0.1,0,0.2,0,0.2,0.1c0,0,0.1,0.1,0.1,0.1c0,0,0,0.1,0,0.1
	c0,0.3,0.1,0.6,0.2,0.9c0.1,0.3,0.3,0.5,0.5,0.7c0.2,0.2,0.3,0.3,0.5,0.4C47.8,61.5,44.3,63.4,40.4,64L40.4,64z M54.8,51.8l-1.4,3.1
	c-0.4,0.8-0.9,1.5-1.5,2.2h-0.4c0,0-0.1,0-0.1,0c0,0-0.1,0-0.1-0.1c0,0-0.1-0.1-0.1-0.1c0,0,0-0.1,0-0.1c0-0.3-0.1-0.6-0.2-0.9
	c-0.1-0.3-0.3-0.5-0.5-0.7c-0.2-0.2-0.5-0.4-0.7-0.5c-0.3-0.1-0.6-0.2-0.9-0.2h0l-1.1,0c0,0,0,0-0.1,0c-0.2,0-0.3-0.1-0.4-0.2
	s-0.2-0.3-0.2-0.4c0-0.3-0.1-0.7-0.2-1c-0.1-0.3-0.3-0.6-0.6-0.8c-0.2-0.2-0.5-0.4-0.8-0.6c-0.3-0.1-0.6-0.2-1-0.2
	c-0.1,0-0.2,0-0.3,0c-0.1,0-0.2-0.1-0.2-0.1C44.1,51.1,44,51,44,50.9c0-0.1-0.1-0.2-0.1-0.3c0-0.1,0-0.2,0.1-0.3
	c0-0.1,0.1-0.2,0.1-0.2c0.1-0.1,0.1-0.1,0.2-0.1c0.1,0,0.2-0.1,0.3,0h10.7C55.2,50.6,55,51.2,54.8,51.8L54.8,51.8z"/>
</svg>
