<svg width="76" height="76" viewBox="0 0 76 76" fill="none" xmlns="http://www.w3.org/2000/svg">
<g clip-path="url(#clip0)">
<path d="M64.4122 64.8825L63.7551 60.4782C63.6809 59.982 63.2187 59.6405 62.7225 59.7143C62.2268 59.7881 61.8843 60.2502 61.9586 60.7464L62.5674 64.8248H54.3846L55.2417 52.2249L60.8143 53.0825L61.4203 57.1415C61.4946 57.6377 61.9567 57.9792 62.4529 57.9059C62.9486 57.8321 63.2911 57.3695 63.2168 56.8738L62.5972 52.7211C62.4874 51.9851 61.9193 51.4146 61.1842 51.3016L57.6077 50.751L60.592 49.4298C61.5901 48.988 61.9141 47.7293 61.2505 46.8608L56.8599 41.1141L56.7657 29.1698C61.1597 26.8458 60.8971 20.2817 56.1305 18.4322C54.9101 17.9591 53.5799 17.9043 52.3349 18.269C50.222 16.9086 47.5111 16.5429 44.9846 17.5382C39.3741 15.0572 32.9571 18.9922 32.6719 25.1647C28.8707 27.4995 27.5732 32.4734 29.8394 36.3649L26.4365 34.2108C25.8622 33.847 25.1201 33.8475 24.5453 34.2108L8.20668 44.5544C7.45126 45.0326 7 45.8519 7 46.7464C7 48.7874 9.24875 50.0362 10.9824 48.9388L11.5358 48.5883V51.0896C11.5358 51.591 11.9421 51.9978 12.444 51.9978C12.9454 51.9978 13.3522 51.591 13.3522 51.0896V47.4384L25.4909 39.7537L37.6301 47.4384V64.8248H25.6475V52.9316C25.6475 51.9851 24.8774 51.215 23.9309 51.215H16.8843C15.9378 51.215 15.1677 51.9851 15.1677 52.9316V64.8248H13.3522V54.7466C13.3522 54.2447 12.9454 53.8384 12.444 53.8384C11.9426 53.8384 11.5358 54.2447 11.5358 54.7466V64.8901C8.96967 65.2921 7.00047 67.5177 7.00047 70.1945C7.00047 71.878 8.36987 73.2479 10.0534 73.2479H65.9466C67.6301 73.2479 69 71.878 69 70.1945C69 67.4993 67.0038 65.2623 64.4122 64.8825V64.8825ZM59.7084 47.8348L54.8543 49.9837L51.1997 42.0313C51.0559 41.7191 50.748 41.5142 50.4041 41.5029L41.7113 41.2177C41.8674 40.8648 41.9857 40.5143 42.076 40.1103L48.3251 39.0422C48.9651 38.933 49.2854 38.2064 48.9391 37.661L46.7197 34.1602C46.8365 33.7832 46.9009 33.4327 46.9326 33.1238C47.0839 33.1427 47.2358 33.1559 47.3871 33.1659L51.7758 38.3407C52.2602 38.9122 53.1996 38.6818 53.3571 37.9415L54.9588 30.3902C55.1125 41.8042 54.8964 41.536 55.2322 41.9759L59.7084 47.8348ZM36.7252 44.7157C37.4437 44.6636 38.1433 44.4801 38.7899 44.1811L41.8036 46.0888C42.6588 46.63 41.8499 47.9606 40.9711 47.4039L36.7252 44.7157ZM45.7481 36.0196L46.6748 37.4817L43.5528 38.0153C44.5367 37.3673 45.2439 36.6852 45.7481 36.0196ZM49.6297 33.0022C50.7986 32.7506 51.9059 32.244 52.8628 31.5179L51.9641 35.7543L49.6297 33.0022ZM33.9949 26.5005C34.2977 26.3411 34.485 26.0251 34.4798 25.6827C34.3989 20.4591 39.8831 17.0169 44.5603 19.3451C44.8049 19.4671 45.092 19.4723 45.3408 19.3588C47.494 18.3801 49.8852 18.7103 51.6595 20.0069C51.9088 20.1894 52.2337 20.232 52.5218 20.1213C53.4735 19.7547 54.5217 19.7562 55.4734 20.1256C57.5784 20.9425 58.6266 23.3194 57.8097 25.4244C57.1863 27.0312 55.6683 28.0293 54.0123 28.0378C53.7034 28.0397 53.4163 28.1987 53.2507 28.4593C51.7739 30.7861 48.8909 31.8863 46.2391 31.1357C45.9264 31.0472 45.5901 31.1324 45.3574 31.3594C44.7321 31.9696 45.4832 32.3405 44.9194 33.8215C44.8848 33.8825 44.0547 36.1492 40.902 37.398C40.5335 37.5437 40.3277 37.9406 40.375 38.3341C40.7431 41.3865 37.7063 43.7545 34.8274 42.6372C32.6525 41.7933 31.7712 39.4301 32.4349 37.495C32.5427 37.1804 32.4699 36.8323 32.2452 36.5872C29.3281 33.4033 30.3082 28.4413 33.9949 26.5005V26.5005ZM24.5453 38.2026L10.0108 47.4039C9.14847 47.9502 8.31075 46.638 9.17827 46.0888L25.4909 35.7623L30.3947 38.8663C30.399 39.5905 30.5367 40.2995 30.793 40.9603L26.4365 38.2026C25.8622 37.8389 25.1201 37.8389 24.5453 38.2026ZM39.4465 48.5883C39.6882 48.6801 40.9725 49.9364 42.6389 49.0192C44.3886 48.0561 44.4236 45.5974 42.7752 44.5544L40.4214 43.0639C40.4451 43.0412 40.4687 43.018 40.4919 42.9948L49.7835 43.2999L53.4811 51.3455L52.5639 64.8248H39.4465V48.5883ZM16.9841 53.0314H23.8311V64.8248H16.9841V53.0314ZM65.9466 71.4315H10.0534C7.71379 71.4315 8.83012 66.6412 12.3702 66.6412H63.6302C67.1694 66.6412 68.2924 71.4315 65.9466 71.4315Z" fill="url(#paint0_linear)"/>
<path d="M34.6858 58.6063C35.5533 58.6063 36.2596 57.9001 36.2596 57.0325V52.7886C36.2596 51.9206 35.5533 51.2148 34.6858 51.2148H28.4414C27.5739 51.2148 26.8682 51.9206 26.8682 52.7886V57.0325C26.8682 57.9001 27.5739 58.6063 28.4414 58.6063H34.6858ZM28.6846 53.0312H34.4431V56.7899H28.6846V53.0312Z" fill="url(#paint1_linear)"/>
</g>
<defs>
<linearGradient id="paint0_linear" x1="38" y1="16.7852" x2="38" y2="73.2479" gradientUnits="userSpaceOnUse">
<stop stop-color="#3CB434"/>
<stop offset="1" stop-color="#5BAB00"/>
</linearGradient>
<linearGradient id="paint1_linear" x1="31.5639" y1="51.2148" x2="31.5639" y2="58.6063" gradientUnits="userSpaceOnUse">
<stop stop-color="#3CB434"/>
<stop offset="1" stop-color="#5BAB00"/>
</linearGradient>
<clipPath id="clip0">
<rect width="62" height="62" fill="white" transform="translate(7 14)"/>
</clipPath>
</defs>
</svg>
