<?xml version="1.0" encoding="utf-8"?>
<!-- Generator: Adobe Illustrator 22.0.0, SVG Export Plug-In . SVG Version: 6.00 Build 0)  -->
<svg version="1.1" id="Слой_1" xmlns="http://www.w3.org/2000/svg" xmlns:xlink="http://www.w3.org/1999/xlink" x="0px" y="0px"
	 viewBox="0 0 76 76" style="enable-background:new 0 0 76 76;" xml:space="preserve">
<style type="text/css">
	.st0{fill:url(#SVGID_1_);}
</style>
<g>
	
		<linearGradient id="SVGID_1_" gradientUnits="userSpaceOnUse" x1="37.5088" y1="69.9976" x2="37.5088" y2="10.0119" gradientTransform="matrix(1 0 0 -1 0 78)">
		<stop  offset="0" style="stop-color:#3CB434"/>
		<stop  offset="1" style="stop-color:#5BAB00"/>
	</linearGradient>
	<path class="st0" d="M59.8,36.9c0.5-1.1,0.8-2.3,1.2-3.3c0.2-0.5,0-1-0.5-1.2c-0.5-0.2-1,0-1.2,0.5c-0.6,1.3-0.8,2.6-1.4,3.5
		c-0.1,0.1-0.2,0.1-0.2,0.2c0,0.1-0.1,0.1-0.1,0.2c-0.2,0.2-0.3,0.4-0.6,0.5c-1.1,0.7-2.8,0.5-4.1,0.2c3-3.5,2.2-5.5,5.3-6.8
		c0.5-0.2,0.7-0.8,0.5-1.2c-0.2-0.5-0.7-0.7-1.2-0.5c-1.1,0.5-1.8,1-2.4,1.6c-0.2-0.7-0.5-1.5-0.9-2.2c1.3-0.9,2.2-2.1,2.6-3.5
		c0.9-3-0.7-6.1-1.3-7.1c1.1-1.1,1.8-3,1.7-5.5c0-0.5-0.5-0.9-1-0.9c-0.5,0-0.9,0.5-0.9,1c0.2,2.6-0.8,5-3.4,5
		c-1.3,0-2.4,0.6-3.4,1.3l3.6-4.4c0.3-0.4,0.3-0.9-0.1-1.2c-0.4-0.3-0.9-0.3-1.2,0.1l-3,3.7c-0.5-1.8,0.7-4,0.7-4.1
		c0.3-0.4,0.1-1-0.3-1.3c-0.4-0.3-1-0.1-1.3,0.3c-0.1,0.1-1.5,2.7-1,5.2l-4.5-3.4c2.8-1.7,2.7-4,2.2-5c-0.2-0.5-0.8-0.7-1.3-0.4
		c-0.5,0.2-0.7,0.8-0.4,1.3c0,0,0.7,1.5-1.7,2.8c-1.7,1-2.8,2.9-3.3,4.2c-1.1-0.5-1.8-0.9-2.5-2.5c-0.2-0.5-0.8-0.7-1.3-0.4
		c-0.5,0.2-0.7,0.8-0.4,1.3c1.7,3.5,3.8,3.1,4.2,3.9c0.3,0.7,0.4,1.5,0.4,2.2c0,0-0.1,0-0.1,0.1c0,0-1.4,0.8-4.1,0.4
		c-2-0.3-3.8-1.9-4.2-2.2c-0.1-0.7-0.3-1.3-0.6-1.8c-0.5-0.9-1.1-1.6-1.6-2.3c0.5-0.3,1.2-0.6,1.5-0.2c0.3,0.4,0.9,0.4,1.2,0.1
		c0.4-0.3,0.4-0.9,0.1-1.2c-1.1-1.3-2.8-0.7-3.9,0c-0.3-0.5-0.6-1.1-0.7-1.7c-0.1-0.5-0.6-0.8-1.1-0.7c-0.5,0.1-0.8,0.6-0.7,1.1
		c0.5,2.6,2.4,3.9,3.6,6c0.7,1.1,0.5,3.3,0.2,4.8c-1.2-0.8-2.1-1.6-3.1-2.7c0-0.2-0.1-0.4-0.2-0.6c-0.1-0.1-0.2-0.2-0.4-0.3
		c-0.7-1-1.3-2.2-2-3.7c-0.2-0.5-0.7-0.7-1.2-0.5c-0.5,0.2-0.7,0.8-0.5,1.2c0.7,1.6,1.4,2.9,2.1,3.9c-1.2,1.3-1.7,2.6-1.6,3.8
		c0.2,1.5,1.4,2.4,2,2.9c-0.2,0.9-1.2,1.5-1.6,1.8c-2.3-0.8-2.4-2-2.6-5.1c0-0.5-0.5-0.9-1-0.9c-0.5,0-0.9,0.5-0.9,1
		c0.1,2.7,0.2,5.1,3.2,6.5c-1.1,1.3-1.4,2.9-1.3,4.3c-1.6-0.7-2.7-0.9-3.1-1.8c-0.3-0.4-0.8-0.6-1.3-0.4c-0.4,0.3-0.6,0.8-0.4,1.3
		c1.1,2,3.3,1.9,6,3.6c1.2,0.7,1.4,1.7,1.4,2.5c-3.3-1.5-6.1-0.8-6.2-0.8c-0.5,0.1-0.8,0.6-0.7,1.1c0.1,0.5,0.6,0.8,1.1,0.7
		c0,0,3.3-0.8,6.7,1.7c0.1,0.1,0.3,0.2,0.4,0.3l-0.6,5c-0.1,0.5,0.3,0.9,0.8,1c0,0,0.1,0,0.1,0c0.4,0,0.8-0.3,0.9-0.8l0.5-4.6
		c1.8,0.4,3.9,0,5.6-0.6c3.1,3.8,2.9,3.6,2.9,3.7C31,59.6,31,59.5,31,59.5c-0.2,2.6-1.5,5-3.6,6.6H24c-0.5,0-0.9,0.4-0.9,0.9
		c0,0.5,0.4,0.9,0.9,0.9h26.2c0.5,0,0.9-0.4,0.9-0.9c0-0.5-0.4-0.9-0.9-0.9h-3.4c-2-1.6-3.3-4-3.6-6.6l-1.1-11.7
		c1.3,0,3.5-0.4,5.1-1.9c0.1-0.1,0.2-0.2,0.3-0.3c0.5-0.2,1.4-0.4,1.9-0.1c0.1,0.1,0.3,0.2,0.4,0.7c0.1,0.4,0.4,0.7,0.9,0.7
		c0.1,0,0.1,0,0.2,0c0.5-0.1,0.8-0.6,0.7-1c-0.2-1.1-0.8-1.7-1.3-1.9c-0.5-0.3-1-0.3-1.5-0.3c0.3-0.9,0.5-1.9,0.5-3.1
		c0.7-0.3,1.3-0.6,1.9-1.1c0.2-0.2,0.3-0.3,0.5-0.4c2.1,0.8,4.7,1.1,6.5-0.1c0.2-0.2,0.5-0.3,0.6-0.5c0.2,0.2,0.5,0.5,0.7,0.8
		c1.1,1.4,0.6,2.4,0.4,2.7c-0.2,0.4-0.1,1,0.4,1.2c0.1,0.1,0.3,0.1,0.4,0.1c0.3,0,0.6-0.2,0.8-0.5C62.8,40.2,61.3,38,59.8,36.9z
		 M52,19.1c0.8,0,1.5-0.1,2.1-0.4c0.2,0.3,0.5,0.9,0.7,1.6c0.4,1,0.7,2.6,0.3,4c-0.3,1-1,1.9-2,2.6c-0.7-1.2-0.6-2.6-0.2-3.1
		c0.4-0.4,0.4-1,0-1.3c-0.4-0.4-1-0.4-1.3,0c-1.1,1.1-1.3,3.4-0.2,5.2c-1.5,0.6-2.8,0.7-3.6,0.2c-1.2-0.7-1.4-2.3-1.4-2.5
		c0.7-1.1,1.2-2.4,1.6-3.6C48.8,20.9,50.5,19.1,52,19.1z M42.7,32.2l-1.9,2.4l-0.8-8c0-0.2-0.1-0.4-0.1-0.6c0.2-0.7,1-3.8,3.1-3.6
		c0.1,0,0.2,0,0.3,0c0.6,0.8,1.2,1.3,1.8,1.7c-0.4,0.7-0.8,1.4-1.4,2.1C41.7,28.9,42,31,42.7,32.2z M40,14.7l6.5,4.8
		c0,0.9-0.2,1.8-0.7,2.9c-0.7-0.6-1.7-1.5-1.8-2.8c0-0.5-0.5-0.9-1-0.9c-0.5,0-0.9,0.5-0.9,1c0,0.4,0.1,0.7,0.2,1
		c-1.3,0.1-2.5,1-3.3,2.5c-0.2,0.4-0.4,0.8-0.5,1.1c-0.1,0-0.1-0.1-0.2-0.1c0.6-1.5,1.4-4.3,0.2-6.6c0-0.1-0.1-0.2-0.1-0.2
		C38.7,16.8,39.2,15.6,40,14.7z M34.5,23c1,0,1.8-0.1,2.4-0.3c-0.2,0.5-0.4,1-0.5,1.3c-1.3,0.3-2.2,1.3-2.4,2.7l-0.2,2.4
		c-1.5-1.8-3.4-3.7-5.3-5c0.2-0.6,0.4-1.7,0.4-2.8c1,0.7,2.3,1.4,3.8,1.7C33.4,23,34,23,34.5,23z M33.6,31.8L33,38.2L29.5,35
		c1.2-1.3,1.9-3.1,1.9-5.2c0-0.1,0-0.2,0-0.2c0.1,0,0.1-0.1,0.2-0.1C32.6,30.4,33.3,31.3,33.6,31.8z M22.7,21.7
		c1.3,1.4,2.6,2.4,4.3,3.5c1.2,0.9,2,1.4,3.4,2.8c-0.5,0.4-1.4,0.8-2.8,0.7c-0.5,0-0.9,0.4-1,0.9c0,0.5,0.4,0.9,0.9,1
		c0.7,0,1.5,0,2.2-0.3c-0.2,1.4-0.6,2.5-1.4,3.4L27,32.6c-0.6-0.6-1.4-0.7-2.1-0.6c-0.4-0.7-1.2-1.6-2.4-2.4
		c0.8-0.7,1.6-1.8,1.5-3.3c0-0.5-0.5-0.9-1-0.9c0,0,0,0,0,0c-0.4-0.3-1.1-0.8-1.2-1.6C21.7,23.1,22.1,22.4,22.7,21.7z M24.9,34.4
		c0-0.4,0.5-0.6,0.8-0.4l1,0.9c-0.4,0.2-0.7,0.4-1.1,0.5C24.8,34.4,24.9,34.5,24.9,34.4z M21,31c1.4,0.7,2.1,1.7,2.4,2.2
		c-0.5,0.9-0.4,1.9,0.2,2.7l0.1,0.1c-1.3,0.2-2.5,0.2-3,0.1c-0.2-0.1-0.4-0.3-0.6-0.4c-0.1-0.1-0.2-0.2-0.4-0.2
		C19.7,35.2,19.1,32.4,21,31z M23.5,41.4c-0.1-0.1-0.2-0.1-0.3-0.1c-0.2-0.1-0.3-0.2-0.4-0.3c-0.1-0.1-0.2-0.1-0.3-0.2
		c0.2-0.8,0.2-1.9-0.3-2.9c0.8,0,1.8-0.1,2.8-0.4l3.1,3.8C26.7,41.7,24.8,41.9,23.5,41.4z M44.1,66.1h-14c1.5-1.8,2.5-4.1,2.7-6.5
		l1.2-12.9c0-0.5-0.1-1-0.4-1.5c-3.5-4.3-5.6-6.8-6.8-8.4c0.4-0.2,0.9-0.4,1.3-0.7l5,4.7c0.6,0.5,1.5,0.2,1.6-0.6L36,26.9
		c0.1-0.6,0.5-1.1,1.1-1.1c0.6,0,1.1,0.5,1.1,1l1,10.3c0.1,0.8,1.1,1.1,1.7,0.5l3.5-4.4c0.2-0.3,0.8-0.2,0.8,0.3
		c0,0.2,0.4-0.5-4.9,8.7c-0.3,0.6-0.5,1.3-0.4,1.9l1.5,15.5C41.5,62.1,42.5,64.3,44.1,66.1z M46,44.6c-1.3,1.2-3.1,1.4-4.1,1.4
		l-0.2-2c0-0.3,0-0.6,0.2-0.8l1.4-2.4c1.4,0.3,2.8,0.4,4.2,0.1C47.4,42.5,46.9,43.8,46,44.6z M49.9,37.9c-1.8,1.5-4.2,1.4-5.7,1.2
		c2.7-4.7,2.5-4.4,2.6-4.7c1.1-0.2,3.2-0.8,4.3-2.3c0.3-0.4,0.2-1-0.2-1.3c-0.4-0.3-1-0.2-1.3,0.2c-0.6,0.8-1.9,1.3-2.9,1.5
		c-0.5-0.9-1.4-1.4-2.4-1.3c-0.3-0.6-0.7-1.9,0.8-3.9c0,0,0,0,0,0c0.3,0.8,0.9,1.6,1.8,2.1c0.7,0.4,1.4,0.6,2.2,0.6
		c1,0,2.2-0.3,3.4-0.8c0.7,1.1,1.1,2.7,1.2,3.6C52.8,34.8,52,36.1,49.9,37.9z"/>
</g>
</svg>
