<?xml version="1.0" encoding="utf-8"?>
<!-- Generator: Adobe Illustrator 22.0.0, SVG Export Plug-In . SVG Version: 6.00 Build 0)  -->
<svg version="1.1" id="Слой_1" xmlns="http://www.w3.org/2000/svg" xmlns:xlink="http://www.w3.org/1999/xlink" x="0px" y="0px"
	 viewBox="0 0 76 76" style="enable-background:new 0 0 76 76;" xml:space="preserve">
<style type="text/css">
	.st0{clip-path:url(#SVGID_2_);}
	.st1{fill:url(#SVGID_3_);}
	.st2{fill:url(#SVGID_4_);}
</style>
<g>
	<defs>
		<rect id="SVGID_1_" x="7" y="14" width="62" height="62"/>
	</defs>
	<clipPath id="SVGID_2_">
		<use xlink:href="#SVGID_1_"  style="overflow:visible;"/>
	</clipPath>
	<g class="st0">
		
			<linearGradient id="SVGID_3_" gradientUnits="userSpaceOnUse" x1="38" y1="61.2148" x2="38" y2="4.7521" gradientTransform="matrix(1 0 0 -1 0 78)">
			<stop  offset="0" style="stop-color:#3CB434"/>
			<stop  offset="1" style="stop-color:#5BAB00"/>
		</linearGradient>
		<path class="st1" d="M64.4,64.9l-0.7-4.4c-0.1-0.5-0.5-0.8-1-0.8c-0.5,0.1-0.8,0.5-0.8,1l0.6,4.1h-8.2l0.9-12.6l5.6,0.9l0.6,4.1
			c0.1,0.5,0.5,0.8,1,0.8c0.5-0.1,0.8-0.5,0.8-1l-0.6-4.2c-0.1-0.7-0.7-1.3-1.4-1.4l-3.6-0.6l3-1.3c1-0.4,1.3-1.7,0.7-2.6l-4.4-5.7
			l-0.1-11.9c4.4-2.3,4.1-8.9-0.6-10.7c-1.2-0.5-2.6-0.5-3.8-0.2c-2.1-1.4-4.8-1.7-7.4-0.7c-5.6-2.5-12,1.5-12.3,7.6
			c-3.8,2.3-5.1,7.3-2.8,11.2l-3.4-2.2c-0.6-0.4-1.3-0.4-1.9,0L8.2,44.6C7.5,45,7,45.9,7,46.7c0,2,2.2,3.3,4,2.2l0.6-0.4v2.5
			c0,0.5,0.4,0.9,0.9,0.9c0.5,0,0.9-0.4,0.9-0.9v-3.7l12.1-7.7l12.1,7.7v17.4h-12V52.9c0-0.9-0.8-1.7-1.7-1.7h-7
			c-0.9,0-1.7,0.8-1.7,1.7v11.9h-1.8V54.7c0-0.5-0.4-0.9-0.9-0.9s-0.9,0.4-0.9,0.9v10.1C9,65.3,7,67.5,7,70.2c0,1.7,1.4,3.1,3.1,3.1
			h55.9c1.7,0,3.1-1.4,3.1-3.1C69,67.5,67,65.3,64.4,64.9z M59.7,47.8L54.9,50l-3.7-8c-0.1-0.3-0.5-0.5-0.8-0.5l-8.7-0.3
			c0.2-0.4,0.3-0.7,0.4-1.1l6.2-1.1c0.6-0.1,1-0.8,0.6-1.4l-2.2-3.5c0.1-0.4,0.2-0.7,0.2-1c0.2,0,0.3,0,0.5,0l4.4,5.2
			c0.5,0.6,1.4,0.3,1.6-0.4l1.6-7.6c0.2,11.4-0.1,11.1,0.3,11.6L59.7,47.8z M36.7,44.7c0.7-0.1,1.4-0.2,2.1-0.5l3,1.9
			c0.9,0.5,0,1.9-0.8,1.3L36.7,44.7z M45.7,36l0.9,1.5L43.6,38C44.5,37.4,45.2,36.7,45.7,36z M49.6,33c1.2-0.3,2.3-0.8,3.2-1.5
			L52,35.8L49.6,33z M34,26.5c0.3-0.2,0.5-0.5,0.5-0.8c-0.1-5.2,5.4-8.7,10.1-6.3c0.2,0.1,0.5,0.1,0.8,0c2.2-1,4.5-0.6,6.3,0.6
			c0.2,0.2,0.6,0.2,0.9,0.1c1-0.4,2-0.4,3,0c2.1,0.8,3.2,3.2,2.3,5.3C57.2,27,55.7,28,54,28c-0.3,0-0.6,0.2-0.8,0.4
			c-1.5,2.3-4.4,3.4-7,2.7c-0.3-0.1-0.6,0-0.9,0.2c-0.6,0.6,0.1,1-0.4,2.5c0,0.1-0.9,2.3-4,3.6c-0.4,0.1-0.6,0.5-0.5,0.9
			c0.4,3.1-2.7,5.4-5.5,4.3c-2.2-0.8-3.1-3.2-2.4-5.1c0.1-0.3,0-0.7-0.2-0.9C29.3,33.4,30.3,28.4,34,26.5z M24.5,38.2L10,47.4
			c-0.9,0.5-1.7-0.8-0.8-1.3l16.3-10.3l4.9,3.1c0,0.7,0.1,1.4,0.4,2.1l-4.4-2.8C25.9,37.8,25.1,37.8,24.5,38.2z M39.4,48.6
			c0.2,0.1,1.5,1.3,3.2,0.4c1.7-1,1.8-3.4,0.1-4.5l-2.4-1.5c0,0,0,0,0.1-0.1l9.3,0.3l3.7,8l-0.9,13.5H39.4V48.6z M17,53h6.8v11.8H17
			V53z M65.9,71.4H10.1c-2.3,0-1.2-4.8,2.3-4.8h51.3C67.2,66.6,68.3,71.4,65.9,71.4z"/>
		
			<linearGradient id="SVGID_4_" gradientUnits="userSpaceOnUse" x1="31.5629" y1="26.7849" x2="31.5629" y2="19.3935" gradientTransform="matrix(1 0 0 -1 0 78)">
			<stop  offset="0" style="stop-color:#3CB434"/>
			<stop  offset="1" style="stop-color:#5BAB00"/>
		</linearGradient>
		<path class="st2" d="M34.7,58.6c0.9,0,1.6-0.7,1.6-1.6v-4.2c0-0.9-0.7-1.6-1.6-1.6h-6.2c-0.9,0-1.6,0.7-1.6,1.6V57
			c0,0.9,0.7,1.6,1.6,1.6H34.7z M28.7,53h5.8v3.8h-5.8V53z"/>
	</g>
</g>
</svg>
