<?xml version="1.0" encoding="utf-8"?>
<!-- Generator: Adobe Illustrator 22.0.0, SVG Export Plug-In . SVG Version: 6.00 Build 0)  -->
<svg version="1.1" id="Слой_1" xmlns="http://www.w3.org/2000/svg" xmlns:xlink="http://www.w3.org/1999/xlink" x="0px" y="0px"
	 viewBox="0 0 76 76" style="enable-background:new 0 0 76 76;" xml:space="preserve">
<style type="text/css">
	.st0{fill:url(#SVGID_1_);}
	.st1{fill:url(#SVGID_2_);}
	.st2{fill:url(#SVGID_3_);}
	.st3{fill:url(#SVGID_4_);}
	.st4{fill:url(#SVGID_5_);}
	.st5{fill:url(#SVGID_6_);}
	.st6{fill:url(#SVGID_7_);}
</style>
<linearGradient id="SVGID_1_" gradientUnits="userSpaceOnUse" x1="37.9994" y1="66.2562" x2="37.9994" y2="11.875" gradientTransform="matrix(1 0 0 -1 0 78)">
	<stop  offset="0" style="stop-color:#3CB434"/>
	<stop  offset="1" style="stop-color:#5BAB00"/>
</linearGradient>
<path class="st0" d="M43.7,49.5c0-9.7,8.7-12.6,9.1-12.7c0.4-0.1,0.7-0.5,0.7-0.9l0-1l0.7-0.3l3.6,4c-0.2,0.2-0.4,0.3-0.6,0.5
	c-1.2,1.2-1.8,2.6-1.8,3.7c0,0.6,0.3,1.1,0.7,1.5c0.4,0.3,0.9,0.5,1.4,0.5c1.2,0,2.6-0.7,3.8-2c1.2-1.2,1.8-2.6,1.8-3.7
	c0-0.6-0.3-1.1-0.7-1.5c-0.8-0.6-1.9-0.6-3.1-0.1c0,0,0-0.1,0-0.1L56,33.6l0.9-0.4h5.4c1.3,0,1.3-1.9,0-1.9h-5.6
	c-0.2,0-0.3,0-0.4,0.1l-2.7,1.4l0-0.7c0-0.3-0.2-0.7-0.5-0.8c-0.2-0.1-0.4-0.1-0.5-0.1l0.8-3.8c0,0,5.3-1.9,5.3-1.9
	c1.2-0.4,0.5-2.2-0.6-1.8l-5.8,2c-0.3,0.1-0.6,0.4-0.6,0.7l-1.3,5.8l-8.4,4.4l-0.1-9.6l8.3-9.4c1.8,0.3,3.8,1.3,5.3,3.6
	c0.7,1,2.3,0,1.6-1.1c-0.9-1.3-1.9-2.3-3-3c0,0,1.4-1.7,1.4-1.7c0.8-1-0.7-2.2-1.5-1.2L52.2,16c-1.6-0.6-3.3-0.7-4.6-0.7
	c-0.1-0.3-0.3-0.5-0.4-0.8l2.1-1c1.1-0.5,0.3-2.3-0.8-1.8l-2.7,1.2c-2-1.4-4.6-1.3-4.8-1.3c-1.2,0.1-1.2,2,0.1,1.9
	c0,0,3.2-0.1,4.5,1.9c-0.6,0.1-1,0.2-1,0.3c-0.1,0-0.2,0.1-0.3,0.2l-5.4,5.1l-9-3.6l-1.9-2.7c0,0,2.1-1.3,2.1-1.3
	c1.1-0.7,0-2.3-1-1.7l-2.1,1.3c0,0-0.7-1-0.7-1c-0.7-1-2.3,0.1-1.6,1.1l1.5,2.2c-0.3,0.1-0.6,0.2-0.8,0.4c-0.3-1.4-1.9-2.5-4.2-2.9
	c-1.6-0.3-4.7-0.1-4.9,2.1c-0.1,1.6,1.7,3,4.3,3.5c0.6,0.1,1.2,0.1,1.7,0.1c-0.8,1-1.5,2.1-2.2,3.2c-0.4,0.7-0.8,1.8-1.3,2.4
	c-0.5,1.1,1.2,2,1.7,0.9c0.4-0.9,1-1.9,1.6-2.9c0.6,0.6,1.5,1.5,2.8,2.9c0.9,0.9,2.3-0.5,1.4-1.4c-1.1-1.1-2.4-2.4-3.1-3.2
	c1.5-2,3.1-3.5,4.2-3.3c0,0,1.1,1.6,1.1,1.6v3.5c0,0.4,0.3,0.8,0.7,0.9c3,0.9,6.3,2.3,7.1,3.3v15.9c0,0-8.4-3.6-8.4-3.6
	c-0.5-0.2-1.1-0.1-1.3,0.5c-0.1-0.2-0.2-0.4-0.3-0.6l0.7-1.2c0.1,0,0.2,0.1,0.4,0.1c1.3,0,2.8-1.2,3.8-3.2c0.7-1.5,0.9-3.1,0.5-4.1
	c-0.2-0.6-0.6-1-1.1-1.2c-1.5-0.6-3.4,0.7-4.5,3.1c-0.7,1.5-0.9,3.1-0.5,4.1L25,36.6c-1.3-2.4-2.7-4.6-2.8-4.7c-0.7-1.1-2.3,0-1.6,1
	c0.3,0.4,0.7,1.1,1.1,1.8L20.8,35c-0.1-0.1-0.2-0.1-0.3-0.2c-1.5-0.6-3.4,0.7-4.5,3.1c-0.7,1.5-0.9,3.1-0.5,4.1
	c0.3,0.8,1,1.3,1.9,1.3c1.3,0,2.8-1.2,3.8-3.2c0.6-1.2,0.8-2.4,0.7-3.4l0.8-0.2c1.1,2,2.3,4.2,2.6,5.3c0,0,0,0,0,0.1l-0.2,0.4
	c-3.1,0.4-4.8,1.6-5.7,2.7c-1.3-0.7-3.2,0-4.9,1.8c-1.2,1.2-1.8,2.6-1.8,3.7c0.1,1.2,1,2,2.1,2c1.2,0,2.6-0.7,3.8-2
	c1.1-1.1,1.7-2.4,1.7-3.5c0.3-0.9,1.4-2.2,4.5-2.7c0.1,0.1,0.3,0.2,0.5,0.3c5.1,1.2,10.6,3.5,10.6,5c0,8.3-1.1,13.3-3.4,14.7
	c-0.8,0.5-0.5,1.8,0.5,1.8h13.6c0.8,0,1.3-0.9,0.8-1.6C47.6,64.5,43.7,59.6,43.7,49.5L43.7,49.5z M61.1,39c0.1,0,0.1,0,0.2,0
	c0.1,0.2,0,1.2-1.2,2.4c-1.3,1.3-2.5,1.5-2.6,1.4c-0.1-0.2,0-1.2,1.2-2.4C59.7,39.3,60.6,39,61.1,39L61.1,39z M20.5,16.6
	c-1.7-0.3-2.6-1.1-2.6-1.4c0.1-0.1,0.7-0.5,1.7-0.5c0.3,0,0.6,0,0.9,0.1c1.7,0.3,2.6,1.1,2.6,1.4C23.1,16.4,22.2,16.9,20.5,16.6
	L20.5,16.6z M27.5,32.9c0.8-1.6,1.7-2.1,2-2.1c0,0,0,0,0,0c0.2,0.1,0.3,1.2-0.4,2.7c-0.8,1.7-1.9,2.2-2.1,2.1
	C26.9,35.5,26.7,34.4,27.5,32.9L27.5,32.9z M19.5,39.3c-0.8,1.7-1.9,2.2-2.1,2.1c-0.2-0.1-0.3-1.2,0.4-2.7c0.8-1.6,1.7-2.1,2-2.1
	c0,0,0,0,0,0C20,36.7,20.2,37.8,19.5,39.3L19.5,39.3z M17.4,49.2c-1.3,1.3-2.4,1.5-2.6,1.4c-0.1-0.2,0-1.2,1.2-2.4
	c1.1-1.1,2.1-1.4,2.5-1.4c0.1,0,0.1,0,0.2,0C18.7,47,18.6,48,17.4,49.2L17.4,49.2z M35.5,64.2c2.2-3.4,2.5-9.7,2.5-14.5
	c0-3.4-7.4-5.7-11-6.7l0.8-2l8.9,3.9c0.3,0.1,0.6,0.1,0.9-0.1c0.3-0.2,0.4-0.5,0.4-0.8V26.3c0-0.2,0-0.3-0.1-0.4
	c-1-1.9-5.5-3.5-7.6-4.2v-1.8l8.4,3.3c0.1,0,0.2,0.1,0.4,0.1c0.2,0,0.5-0.1,0.7-0.3l5.7-5.3c0.4-0.1,1.2-0.3,2.2-0.4l-7.5,8.5
	c-0.1,0.1-0.1,0.2-0.2,0.3c-0.1,0.1-0.1,0.3-0.1,0.4L39.9,38c0,0.3,0.2,0.7,0.5,0.8c0.3,0.2,0.7,0.2,1,0l10.2-5.3l0,1.7
	c-2.3,1-9.8,4.7-9.8,14.3c0,7.5,2,12.4,3.3,14.7H35.5z"/>
<linearGradient id="SVGID_2_" gradientUnits="userSpaceOnUse" x1="49.6244" y1="33.191" x2="49.6244" y2="25.4336" gradientTransform="matrix(1 0 0 -1 0 78)">
	<stop  offset="0" style="stop-color:#3CB434"/>
	<stop  offset="1" style="stop-color:#5BAB00"/>
</linearGradient>
<path class="st1" d="M52.8,45.3c-1.2-1-3.4-0.4-5.3,1.5c-1.2,1.2-1.8,2.6-1.8,3.7c0,0.6,0.3,1.1,0.7,1.5c0.4,0.3,0.9,0.5,1.4,0.5
	c1.2,0,2.6-0.7,3.8-2c1.2-1.2,1.8-2.6,1.8-3.7C53.5,46.2,53.2,45.7,52.8,45.3L52.8,45.3z M50.3,49.2c-1.3,1.3-2.5,1.5-2.6,1.4
	c-0.1-0.2,0-1.2,1.2-2.4c1.1-1.1,2.1-1.4,2.5-1.4c0.1,0,0.1,0,0.2,0C51.6,47,51.5,48,50.3,49.2z"/>
<linearGradient id="SVGID_3_" gradientUnits="userSpaceOnUse" x1="28.3119" y1="31.2526" x2="28.3119" y2="23.4961" gradientTransform="matrix(1 0 0 -1 0 78)">
	<stop  offset="0" style="stop-color:#3CB434"/>
	<stop  offset="1" style="stop-color:#5BAB00"/>
</linearGradient>
<path class="st2" d="M26.2,48.8c-1.2,1.2-1.8,2.6-1.8,3.7c0,0.6,0.3,1.1,0.7,1.5c0.4,0.3,0.9,0.5,1.4,0.5c1.2,0,2.6-0.7,3.8-2
	c1.2-1.2,1.8-2.6,1.8-3.7c0-0.6-0.3-1.1-0.7-1.5C30.2,46.2,28,46.9,26.2,48.8L26.2,48.8z M29,51.1c-1.3,1.3-2.4,1.5-2.6,1.4
	c-0.1-0.2,0-1.2,1.2-2.4c1.1-1.1,2.1-1.4,2.5-1.4c0.1,0,0.1,0,0.2,0C30.3,48.9,30.2,49.9,29,51.1L29,51.1z"/>
<linearGradient id="SVGID_4_" gradientUnits="userSpaceOnUse" x1="18.6244" y1="23.5026" x2="18.6244" y2="15.7461" gradientTransform="matrix(1 0 0 -1 0 78)">
	<stop  offset="0" style="stop-color:#3CB434"/>
	<stop  offset="1" style="stop-color:#5BAB00"/>
</linearGradient>
<path class="st3" d="M16.5,56.5c-1.2,1.2-1.8,2.6-1.8,3.7c0,0.6,0.3,1.1,0.7,1.5c0.4,0.3,0.9,0.5,1.4,0.5c1.2,0,2.6-0.7,3.8-2
	c1.2-1.2,1.8-2.6,1.8-3.7c0-0.6-0.3-1.1-0.7-1.5C20.6,54,18.3,54.6,16.5,56.5z M19.3,58.9c-1.3,1.3-2.5,1.5-2.6,1.4
	c-0.1-0.2,0-1.2,1.2-2.4c1.1-1.1,2.1-1.4,2.5-1.4c0.1,0,0.1,0,0.2,0C20.6,56.6,20.5,57.7,19.3,58.9L19.3,58.9z"/>
<linearGradient id="SVGID_5_" gradientUnits="userSpaceOnUse" x1="57.3753" y1="21.3286" x2="57.3753" y2="14.0489" gradientTransform="matrix(1 0 0 -1 0 78)">
	<stop  offset="0" style="stop-color:#3CB434"/>
	<stop  offset="1" style="stop-color:#5BAB00"/>
</linearGradient>
<path class="st4" d="M58.9,58c-1.4-1-2.8-1.5-3.9-1.2c-0.6,0.1-1.1,0.4-1.4,0.9c-0.9,1.3,0.1,3.5,2.2,5c1.1,0.8,2.4,1.3,3.4,1.3
	c0.2,0,0.4,0,0.6-0.1c0.6-0.1,1.1-0.4,1.4-0.9C62,61.7,61.1,59.5,58.9,58L58.9,58z M57,61.1c-1.5-1.1-1.8-2.2-1.7-2.4
	c0,0,0.1-0.1,0.3-0.1c0.4,0,1.3,0.2,2.3,0.9c1.5,1.1,1.8,2.2,1.7,2.4C59.4,62.1,58.3,62.1,57,61.1L57,61.1z"/>
<linearGradient id="SVGID_6_" gradientUnits="userSpaceOnUse" x1="59.0933" y1="30.532" x2="59.0933" y2="23.2539" gradientTransform="matrix(1 0 0 -1 0 78)">
	<stop  offset="0" style="stop-color:#3CB434"/>
	<stop  offset="1" style="stop-color:#5BAB00"/>
</linearGradient>
<path class="st5" d="M60.7,48.8c-1.4-1-2.8-1.5-3.9-1.2c-0.6,0.1-1.1,0.4-1.4,0.9c-0.9,1.3,0.1,3.5,2.2,5c1.1,0.8,2.4,1.3,3.4,1.3
	c0.2,0,0.4,0,0.6,0c0.6-0.1,1.1-0.4,1.4-0.9C63.7,52.4,62.8,50.3,60.7,48.8L60.7,48.8z M58.7,51.9c-1.5-1.1-1.8-2.2-1.7-2.4
	c0,0,0.1-0.1,0.3-0.1c0.4,0,1.3,0.2,2.3,0.9c1.4,1,1.8,2.2,1.7,2.4C61.1,52.9,60,52.9,58.7,51.9L58.7,51.9z"/>
<linearGradient id="SVGID_7_" gradientUnits="userSpaceOnUse" x1="59.1864" y1="64.0547" x2="59.1864" y2="56.5693" gradientTransform="matrix(1 0 0 -1 0 78)">
	<stop  offset="0" style="stop-color:#3CB434"/>
	<stop  offset="1" style="stop-color:#5BAB00"/>
</linearGradient>
<path class="st6" d="M57.5,19.9c1.2,1,2.4,1.5,3.5,1.5c0.1,0,0.3,0,0.4,0c0.6-0.1,1.1-0.4,1.4-0.8c0.9-1.3,0.1-3.5-1.9-5.1
	c-1.3-1.1-2.8-1.6-3.9-1.5c-0.6,0.1-1.1,0.4-1.4,0.8C54.6,16.1,55.4,18.3,57.5,19.9L57.5,19.9z M59.6,16.9c1.4,1.2,1.7,2.3,1.6,2.5
	c-0.2,0.1-1.2,0.1-2.5-1c-1.4-1.2-1.7-2.3-1.6-2.5C57.3,15.8,58.4,15.9,59.6,16.9L59.6,16.9z"/>
</svg>
