<?xml version="1.0" encoding="utf-8"?>
<!-- Generator: Adobe Illustrator 22.0.0, SVG Export Plug-In . SVG Version: 6.00 Build 0)  -->
<svg version="1.1" id="Слой_1" xmlns="http://www.w3.org/2000/svg" xmlns:xlink="http://www.w3.org/1999/xlink" x="0px" y="0px"
	 viewBox="0 0 76 76" style="enable-background:new 0 0 76 76;" xml:space="preserve">
<style type="text/css">
	.st0{fill:#FFFFFF;fill-opacity:1.000000e-02;}
	.st1{fill:url(#SVGID_1_);}
	.st2{fill:url(#SVGID_2_);}
	.st3{fill:url(#SVGID_3_);}
	.st4{fill:url(#SVGID_4_);}
	.st5{fill:url(#SVGID_5_);}
	.st6{fill:url(#SVGID_6_);}
	.st7{fill:url(#SVGID_7_);}
	.st8{fill:url(#SVGID_8_);}
	.st9{fill:url(#SVGID_9_);}
	.st10{fill:url(#SVGID_10_);}
	.st11{fill:url(#SVGID_11_);}
	.st12{fill:url(#SVGID_12_);}
</style>
<rect class="st0" width="76" height="76"/>
<linearGradient id="SVGID_1_" gradientUnits="userSpaceOnUse" x1="38.0407" y1="64.375" x2="38.0407" y2="15.3049" gradientTransform="matrix(1 0 0 -1 0 78)">
	<stop  offset="0" style="stop-color:#3CB434"/>
	<stop  offset="1" style="stop-color:#5BAB00"/>
</linearGradient>
<path class="st1" d="M61.2,44.9l-11,8.7c-0.8,0.7-1.8,1.2-2.8,1.5l-1.2,1.6c-0.4,0.5-0.9,1-1.6,1.3c-0.6,0.3-1.3,0.4-2,0.4l-7.3-0.5
	c-0.5,0-1,0.1-1.4,0.4c-0.4,0.3-0.8,0.7-1,1.1l-1.5,3.6l-1.5-0.6l1.1-2.6l-2-0.8l-1.7,4l-1.5-0.6l0.7-1.6L17,56.3l-1.7,5.5l-1.5-0.5
	l4.6-14.5c0.8-2.4,2.4-4.4,4.5-5.6l0.5-0.3c1.5-0.9,3.2-1.3,4.9-1.3h5.6l5.8-2.1v-2c-1.6-0.2-3-1-4.1-2.2c-1-1.2-1.6-2.7-1.6-4.3
	v-0.4c0-1.5,0.5-2.9,1.4-4.1l0.9-1.2c0.2-0.3,0.3-0.6,0.3-0.9c0-0.3-0.1-0.6-0.3-0.9c-0.5-0.8-0.8-1.7-0.8-2.7v-0.4
	c0-1.3,0.5-2.5,1.4-3.4c0.9-0.9,2.2-1.4,3.4-1.4s2.5,0.5,3.4,1.4c0.9,0.9,1.4,2.2,1.4,3.4v0.4c0,1-0.3,1.9-0.8,2.7
	c-0.2,0.3-0.3,0.6-0.3,0.9c0,0.3,0.1,0.6,0.3,0.9l0.9,1.2c0.5,0.6,0.9,1.3,1.1,2.1l0.7-1.2c0.3-0.4,0.4-1,0.5-1.5
	c0-0.5-0.1-1-0.3-1.5l-0.1-0.2c-0.3-0.7-0.5-1.5-0.5-2.3v-0.6c0-1.5,0.6-3,1.7-4s2.5-1.7,4-1.7s3,0.6,4,1.7c1.1,1.1,1.7,2.5,1.7,4
	v0.6c0,0.8-0.2,1.6-0.5,2.3l-0.1,0.2c-0.2,0.5-0.3,1-0.3,1.5c0,0.5,0.2,1,0.5,1.5l1,1.7c0.7,1.1,1,2.4,1,3.8v0.6
	c0,1.8-0.7,3.5-1.9,4.9c-1.2,1.3-2.8,2.2-4.6,2.4v3.3l3.9-2.5c0.4-0.2,0.8-0.4,1.2-0.5c0.4-0.1,0.9-0.1,1.3,0
	c0.4,0.1,0.8,0.3,1.2,0.5c0.4,0.3,0.7,0.6,0.9,1c0.4,0.7,0.6,1.5,0.4,2.3C62.2,43.7,61.8,44.4,61.2,44.9L61.2,44.9z M31.7,58
	c0.4-0.6,0.9-1.2,1.6-1.5c0.7-0.3,1.4-0.5,2.2-0.5l7.3,0.5c0.4,0,0.8,0,1.2-0.2c0.4-0.2,0.7-0.4,0.9-0.8l0.1-0.2
	c-0.6,0-1.1,0-1.7-0.1l-10.3-1.5c-0.5-0.1-1.1,0-1.6,0.3c-0.5,0.3-0.8,0.7-1.1,1.2l-0.8,1.9L31.7,58z M27.2,58.9l1.8-4.2l-9.9-4.9
	l-1.6,5L27.2,58.9z M45.3,28.6c0-0.5-0.1-1-0.2-1.4L41.3,31v2.8c1.1-0.2,2.2-0.8,2.9-1.7c0.7-0.9,1.2-2,1.2-3.1V28.6z M35.6,28.6
	v0.4c0,1.2,0.4,2.3,1.2,3.1c0.7,0.9,1.8,1.5,2.9,1.7v-7.7l-1.9-1.9c0,0.1-0.1,0.1-0.1,0.2l-0.9,1.2C35.9,26.4,35.6,27.5,35.6,28.6
	L35.6,28.6z M43.3,24.4c-0.4-0.5-0.7-1.2-0.7-1.8c0-0.7,0.2-1.3,0.5-1.9c0.4-0.5,0.5-1.2,0.5-1.8v-0.4c0-0.9-0.3-1.7-1-2.3
	c-0.6-0.6-1.4-1-2.3-1c-0.9,0-1.7,0.3-2.3,1c-0.6,0.6-1,1.4-1,2.3v0.4c0,0.6,0.2,1.3,0.5,1.8c0.4,0.5,0.5,1.2,0.5,1.8l1.4,1.4v-3.7
	h1.6v8.6l3.1-3.1c0,0,0-0.1-0.1-0.1L43.3,24.4z M46.9,30.9v0.6c0,1.4,0.5,2.7,1.4,3.7c0.9,1,2.1,1.7,3.5,1.9v-2.9l-4.7-4.7
	C47,30,46.9,30.4,46.9,30.9L46.9,30.9z M47.8,27.9l4.1,4.1v-7.5L49,21.7l0,0.1c0.3,0.7,0.5,1.5,0.4,2.3c0,0.8-0.3,1.5-0.7,2.2
	L47.8,27.9z M56.7,19.3c0-1-0.4-2.1-1.1-2.8c-0.7-0.8-1.7-1.2-2.8-1.2c-1,0-2.1,0.3-2.9,1c-0.8,0.7-1.3,1.7-1.4,2.7l3.2,3.2v-3.7
	h1.6v10.2l2.9-2.9c-0.3-0.6-0.5-1.3-0.5-2c0-0.7,0.1-1.4,0.4-2.1l0.1-0.2c0.2-0.5,0.4-1.1,0.4-1.7V19.3z M58.3,31.5v-0.6
	c0-1-0.3-2-0.8-2.9l-0.4-0.6L53.4,31v6.1c1.4-0.2,2.6-0.9,3.5-1.9C57.8,34.2,58.3,32.9,58.3,31.5L58.3,31.5z M51.8,38.8
	c-1.5-0.2-2.9-0.8-4.1-1.8c-1.1-1-1.9-2.3-2.3-3.8c-1.1,1.3-2.6,2.2-4.2,2.4V37c0.7-0.1,1.3,0,1.9,0.3c0.6,0.3,1.1,0.7,1.5,1.3
	c0.2,0.4,0.4,0.8,0.4,1.3c0.1,0.4,0,0.9-0.1,1.3c-0.1,0.4-0.3,0.8-0.6,1.2c-0.3,0.4-0.6,0.6-1,0.9l-2.5,1.3l1.9,0.9
	c1,0.4,2.1,0.6,3.1,0.5c1.1-0.1,2.1-0.4,3-1l2.8-1.8V38.8z M60.6,41.4c-0.1-0.2-0.3-0.4-0.4-0.5c-0.2-0.1-0.4-0.2-0.6-0.3
	c-0.2-0.1-0.4-0.1-0.7,0c-0.2,0-0.4,0.1-0.6,0.2l-8.3,5.4c-1.1,0.7-2.4,1.2-3.8,1.3c-1.3,0.1-2.7-0.1-3.9-0.7l-3.1-1.4l-4,2.1
	l-0.8-1.4l8.2-4.4c0.2-0.1,0.4-0.3,0.5-0.4c0.1-0.2,0.3-0.4,0.3-0.6c0.1-0.2,0.1-0.5,0-0.7c0-0.2-0.1-0.5-0.2-0.7
	c-0.2-0.3-0.5-0.6-0.9-0.7c-0.4-0.1-0.8-0.1-1.2,0l-7.1,2.6h-5.8c-1.4,0-2.9,0.4-4.1,1.1l-0.5,0.3c-1.8,1-3.2,2.7-3.8,4.7l-0.3,0.8
	l10.3,5.2c0.4-0.4,1-0.8,1.6-1c0.6-0.2,1.2-0.2,1.9-0.2l10.3,1.5c1,0.1,2,0.1,3-0.2c1-0.3,1.9-0.7,2.7-1.3l11-8.7
	c0.3-0.3,0.5-0.6,0.6-1C60.8,42.2,60.8,41.8,60.6,41.4L60.6,41.4z"/>
<linearGradient id="SVGID_2_" gradientUnits="userSpaceOnUse" x1="22.5625" y1="59.5" x2="22.5625" y2="51.375" gradientTransform="matrix(1 0 0 -1 0 78)">
	<stop  offset="0" style="stop-color:#3CB434"/>
	<stop  offset="1" style="stop-color:#5BAB00"/>
</linearGradient>
<path class="st2" d="M18.5,22.6c0-0.8,0.2-1.6,0.7-2.3c0.4-0.7,1.1-1.2,1.8-1.5c0.7-0.3,1.6-0.4,2.3-0.2c0.8,0.2,1.5,0.5,2.1,1.1
	c0.6,0.6,1,1.3,1.1,2.1c0.2,0.8,0.1,1.6-0.2,2.3c-0.3,0.7-0.8,1.4-1.5,1.8s-1.5,0.7-2.3,0.7c-1.1,0-2.1-0.4-2.9-1.2
	S18.5,23.6,18.5,22.6L18.5,22.6z M22.6,25c0.5,0,1-0.1,1.4-0.4c0.4-0.3,0.7-0.6,0.9-1.1C25,23,25,22.6,25,22.1
	c-0.1-0.5-0.3-0.9-0.7-1.2s-0.8-0.6-1.2-0.7c-0.5-0.1-1,0-1.4,0.1c-0.4,0.2-0.8,0.5-1.1,0.9c-0.3,0.4-0.4,0.9-0.4,1.4
	c0,0.6,0.3,1.3,0.7,1.7C21.3,24.7,21.9,25,22.6,25L22.6,25z"/>
<linearGradient id="SVGID_3_" gradientUnits="userSpaceOnUse" x1="22.5625" y1="64.375" x2="22.5625" y2="61.125" gradientTransform="matrix(1 0 0 -1 0 78)">
	<stop  offset="0" style="stop-color:#3CB434"/>
	<stop  offset="1" style="stop-color:#5BAB00"/>
</linearGradient>
<path class="st3" d="M21.8,13.6h1.6v3.3h-1.6V13.6z"/>
<linearGradient id="SVGID_4_" gradientUnits="userSpaceOnUse" x1="15.25" y1="56.25" x2="15.25" y2="54.625" gradientTransform="matrix(1 0 0 -1 0 78)">
	<stop  offset="0" style="stop-color:#3CB434"/>
	<stop  offset="1" style="stop-color:#5BAB00"/>
</linearGradient>
<path class="st4" d="M13.6,21.8h3.3v1.6h-3.3V21.8z"/>
<linearGradient id="SVGID_5_" gradientUnits="userSpaceOnUse" x1="17.8554" y1="61.2929" x2="16.7064" y2="60.1438" gradientTransform="matrix(1 0 0 -1 0 78)">
	<stop  offset="0" style="stop-color:#3CB434"/>
	<stop  offset="1" style="stop-color:#5BAB00"/>
</linearGradient>
<path class="st5" d="M16.6,15.5l2.4,2.4l-1.1,1.1l-2.4-2.4L16.6,15.5z"/>
<linearGradient id="SVGID_6_" gradientUnits="userSpaceOnUse" x1="29.875" y1="56.25" x2="29.875" y2="54.625" gradientTransform="matrix(1 0 0 -1 0 78)">
	<stop  offset="0" style="stop-color:#3CB434"/>
	<stop  offset="1" style="stop-color:#5BAB00"/>
</linearGradient>
<path class="st6" d="M28.3,21.8h3.3v1.6h-3.3V21.8z"/>
<linearGradient id="SVGID_7_" gradientUnits="userSpaceOnUse" x1="29.0622" y1="61.9379" x2="26.6247" y2="59.5004" gradientTransform="matrix(1 0 0 -1 0 78)">
	<stop  offset="0" style="stop-color:#3CB434"/>
	<stop  offset="1" style="stop-color:#5BAB00"/>
</linearGradient>
<path class="st7" d="M28.5,15.5l1.1,1.1l-2.4,2.4l-1.1-1.1L28.5,15.5z"/>
<linearGradient id="SVGID_8_" gradientUnits="userSpaceOnUse" x1="22.5625" y1="49.75" x2="22.5625" y2="46.5" gradientTransform="matrix(1 0 0 -1 0 78)">
	<stop  offset="0" style="stop-color:#3CB434"/>
	<stop  offset="1" style="stop-color:#5BAB00"/>
</linearGradient>
<path class="st8" d="M21.8,28.3h1.6v3.3h-1.6V28.3z"/>
<linearGradient id="SVGID_9_" gradientUnits="userSpaceOnUse" x1="28.4179" y1="50.7304" x2="27.2689" y2="49.5813" gradientTransform="matrix(1 0 0 -1 0 78)">
	<stop  offset="0" style="stop-color:#3CB434"/>
	<stop  offset="1" style="stop-color:#5BAB00"/>
</linearGradient>
<path class="st9" d="M27.2,26.1l2.4,2.4l-1.1,1.1l-2.4-2.4L27.2,26.1z"/>
<linearGradient id="SVGID_10_" gradientUnits="userSpaceOnUse" x1="18.4997" y1="51.3754" x2="16.0621" y2="48.9379" gradientTransform="matrix(1 0 0 -1 0 78)">
	<stop  offset="0" style="stop-color:#3CB434"/>
	<stop  offset="1" style="stop-color:#5BAB00"/>
</linearGradient>
<path class="st10" d="M17.9,26.1l1.1,1.1l-2.4,2.4l-1.1-1.1L17.9,26.1z"/>
<linearGradient id="SVGID_11_" gradientUnits="userSpaceOnUse" x1="27.4375" y1="44.875" x2="27.4375" y2="40" gradientTransform="matrix(1 0 0 -1 0 78)">
	<stop  offset="0" style="stop-color:#3CB434"/>
	<stop  offset="1" style="stop-color:#5BAB00"/>
</linearGradient>
<path class="st11" d="M31.5,38H20.9v-1.6h10.6c0.2,0,0.4-0.1,0.6-0.2c0.2-0.2,0.2-0.4,0.2-0.6s-0.1-0.4-0.2-0.6
	c-0.2-0.2-0.4-0.2-0.6-0.2h-2.4v-1.6h2.4c0.6,0,1.3,0.3,1.7,0.7s0.7,1.1,0.7,1.7s-0.3,1.3-0.7,1.7S32.1,38,31.5,38z"/>
<linearGradient id="SVGID_12_" gradientUnits="userSpaceOnUse" x1="18.5" y1="41.625" x2="18.5" y2="40" gradientTransform="matrix(1 0 0 -1 0 78)">
	<stop  offset="0" style="stop-color:#3CB434"/>
	<stop  offset="1" style="stop-color:#5BAB00"/>
</linearGradient>
<path class="st12" d="M17.7,36.4h1.6V38h-1.6V36.4z"/>
</svg>
