<svg width="76" height="76" viewBox="0 0 76 76" fill="none" xmlns="http://www.w3.org/2000/svg">
<g clip-path="url(#clip0)">
<path d="M68.2664 69.9844H9.94531C9.36641 69.9844 8.90625 69.5242 8.90625 68.9453C8.90625 68.3664 9.36641 67.9062 9.94531 67.9062H68.2664C68.8453 67.9062 69.3055 68.3664 69.3055 68.9453C69.3055 69.5242 68.8453 69.9844 68.2664 69.9844Z" fill="url(#paint0_linear)"/>
<path d="M63.5018 69.9841H30.415C29.8361 69.9841 29.376 69.5239 29.376 68.945V56.3872C29.376 55.8083 29.8361 55.3481 30.415 55.3481C30.9939 55.3481 31.4541 55.8083 31.4541 56.3872V67.906H62.4627V42.731C62.4627 42.1521 62.9228 41.6919 63.5018 41.6919C64.0807 41.6919 64.5408 42.1521 64.5408 42.731V68.945C64.5408 69.5091 64.0658 69.9841 63.5018 69.9841Z" fill="url(#paint1_linear)"/>
<path d="M67.0642 44.9282C66.9454 44.9282 66.8267 44.9134 66.7079 44.8688L47.2775 37.8181C46.7431 37.6251 46.4611 37.0313 46.654 36.4821C46.847 35.9478 47.4408 35.6657 47.99 35.8587L66.0251 42.4048V39.2876C66.0251 38.0853 65.3126 36.9868 64.2142 36.497L62.0618 35.5321C61.3493 35.2056 60.8743 34.4931 60.8743 33.7063V28.422H57.9353V31.0642C57.9353 31.7173 57.6087 32.3407 57.0743 32.7118C56.54 33.0829 55.8423 33.172 55.2337 32.9345L46.1345 29.461C45.6001 29.2532 45.3329 28.6595 45.5408 28.1251C45.7486 27.5907 46.3423 27.3235 46.8767 27.5313L55.8868 30.9751V27.4126C55.8868 26.8337 56.347 26.3735 56.9259 26.3735H61.9431C62.522 26.3735 62.9822 26.8337 62.9822 27.4126V33.6767L65.0751 34.6118C66.9157 35.4431 68.1032 37.2688 68.1032 39.2876V43.8892C68.1032 44.2306 67.94 44.5423 67.6579 44.7352C67.4798 44.854 67.272 44.9282 67.0642 44.9282Z" fill="url(#paint2_linear)"/>
<path d="M52.6951 69.9845H40.3154C39.7365 69.9845 39.2764 69.5243 39.2764 68.9454V59.579C39.2764 55.586 42.5123 52.3501 46.5053 52.3501C50.4982 52.3501 53.7342 55.586 53.7342 59.579V68.9454C53.7342 69.5095 53.2592 69.9845 52.6951 69.9845ZM41.3545 67.9063H51.6561V59.579C51.6561 56.7438 49.3404 54.4282 46.5053 54.4282C43.6701 54.4282 41.3545 56.7438 41.3545 59.579V67.9063Z" fill="url(#paint3_linear)"/>
<path d="M50.2608 50.9401H44.7983C44.2194 50.9401 43.7593 50.48 43.7593 49.9011C43.7593 49.3222 44.2194 48.862 44.7983 48.862H49.2218V44.9136H47.6483C47.0694 44.9136 46.6093 44.4534 46.6093 43.8745C46.6093 43.2956 47.0694 42.8354 47.6483 42.8354H50.2608C50.8397 42.8354 51.2999 43.2956 51.2999 43.8745V49.9011C51.2999 50.48 50.8397 50.9401 50.2608 50.9401Z" fill="url(#paint4_linear)"/>
<path d="M43.4181 31.5688C44.6204 29.654 45.2587 27.472 45.2587 25.2157C45.2587 18.6993 40.0188 13.3853 33.5173 13.2813C31.3649 10.2681 27.9212 8.48682 24.1954 8.48682C19.8165 8.48682 15.8384 10.9954 13.9087 14.8993C6.97666 16.9032 2.18213 23.2563 2.18213 30.5001C2.18213 34.3446 3.5626 38.0704 6.05635 41.0095C6.02666 41.3509 6.01182 41.6923 6.01182 42.0189C6.01182 49.9157 12.4392 56.3579 20.3509 56.3579C20.9001 56.3579 21.4493 56.3282 21.9985 56.2689L21.4196 68.0103H20.3509C19.861 68.0103 19.4603 68.411 19.4603 68.9009C19.4603 69.3907 19.861 69.7915 20.3509 69.7915H29.9548C30.4446 69.7915 30.8454 69.3907 30.8454 68.9009C30.8454 68.411 30.4446 68.0103 29.9548 68.0103H28.886L28.1884 53.9681C29.3907 54.2798 30.6228 54.4431 31.8696 54.4431C39.7665 54.4431 46.2087 48.0157 46.2087 40.104C46.2235 36.972 45.2438 34.0181 43.4181 31.5688ZM23.2306 67.9806L24.0618 51.2962C24.8188 51.222 25.561 51.029 26.2438 50.7321L27.1048 67.9806H23.2306ZM31.8845 52.6321C30.5931 52.6321 29.3313 52.4392 28.1142 52.0532L27.9954 49.6931C28.2329 49.5001 28.4704 49.2923 28.6931 49.0696C29.0345 48.7134 29.0345 48.1493 28.6782 47.7931C28.322 47.4517 27.7579 47.4517 27.4017 47.8079C26.3032 48.936 24.8188 49.5595 23.2454 49.5595C22.3696 49.5595 21.5384 49.3665 20.7517 48.9954C20.3063 48.7876 19.772 48.9657 19.5493 49.4259C19.3415 49.8712 19.5196 50.4056 19.9798 50.6282C20.7071 50.9696 21.479 51.1923 22.2657 51.2962L22.1024 54.4431C21.5235 54.5173 20.9446 54.5618 20.3657 54.5618C13.4485 54.5618 7.82275 48.936 7.82275 42.0189C7.82275 41.6329 7.8376 41.2321 7.88213 40.8017C7.91182 40.5493 7.82275 40.297 7.65947 40.1188C5.28447 37.4618 3.97822 34.0478 3.97822 30.5149C3.97822 24.5478 7.65947 19.2485 13.1071 17.0962C12.9587 17.6899 12.8399 18.2985 12.7954 18.922C12.7509 19.4118 13.122 19.8571 13.6118 19.9017C13.6415 19.9017 13.6712 19.9017 13.7009 19.9017C14.161 19.9017 14.547 19.5454 14.5915 19.0853C14.6806 18.061 14.9478 17.0517 15.3485 16.1165C15.3634 16.0868 15.3782 16.072 15.3782 16.0423C16.9368 12.554 20.3954 10.2978 24.1954 10.2978C27.4759 10.2978 30.504 11.9454 32.2853 14.7063C32.4485 14.9735 32.7454 15.122 33.0571 15.1071C33.1165 15.1071 33.161 15.1071 33.2204 15.0923C33.2501 15.0923 33.2798 15.0923 33.3095 15.0923C38.9056 15.0923 43.4477 19.6345 43.4477 25.2306C43.4477 26.9673 43.0024 28.6446 42.1712 30.1439C42.0821 30.0548 41.9931 29.9657 41.904 29.8618C41.5477 29.5204 40.9837 29.5204 40.6274 29.8767C40.286 30.2329 40.286 30.797 40.6423 31.1532C43.0767 33.5282 44.4126 36.7196 44.4126 40.1188C44.4274 47.0064 38.8017 52.6321 31.8845 52.6321Z" fill="url(#paint5_linear)"/>
<path d="M20.3659 42.0637C16.0909 42.0637 12.6323 38.5902 12.6323 34.3301C12.6323 33.8402 12.2315 33.4395 11.7417 33.4395C11.2519 33.4395 10.8511 33.8402 10.8511 34.3301C10.8511 39.5848 15.1261 43.8598 20.3808 43.8598C20.8706 43.8598 21.2714 43.459 21.2714 42.9691C21.2714 42.4793 20.8706 42.0637 20.3659 42.0637Z" fill="url(#paint6_linear)"/>
<path d="M32.8491 18.0762C32.3593 18.0762 31.9585 18.477 31.9585 18.9668C31.9585 19.4566 32.3593 19.8574 32.8491 19.8574C35.5358 19.8574 37.703 22.0395 37.703 24.7113C37.703 25.2012 38.1038 25.602 38.5936 25.602C39.0835 25.602 39.4843 25.2012 39.4843 24.7113C39.4991 21.0598 36.5155 18.0762 32.8491 18.0762Z" fill="url(#paint7_linear)"/>
</g>
<defs>
<linearGradient id="paint0_linear" x1="39.1059" y1="67.9062" x2="39.1059" y2="69.9844" gradientUnits="userSpaceOnUse">
<stop stop-color="#3CB434"/>
<stop offset="1" stop-color="#5BAB00"/>
</linearGradient>
<linearGradient id="paint1_linear" x1="46.9584" y1="41.6919" x2="46.9584" y2="69.9841" gradientUnits="userSpaceOnUse">
<stop stop-color="#3CB434"/>
<stop offset="1" stop-color="#5BAB00"/>
</linearGradient>
<linearGradient id="paint2_linear" x1="56.7867" y1="26.3735" x2="56.7867" y2="44.9282" gradientUnits="userSpaceOnUse">
<stop stop-color="#3CB434"/>
<stop offset="1" stop-color="#5BAB00"/>
</linearGradient>
<linearGradient id="paint3_linear" x1="46.5053" y1="52.3501" x2="46.5053" y2="69.9845" gradientUnits="userSpaceOnUse">
<stop stop-color="#3CB434"/>
<stop offset="1" stop-color="#5BAB00"/>
</linearGradient>
<linearGradient id="paint4_linear" x1="47.5296" y1="42.8354" x2="47.5296" y2="50.9401" gradientUnits="userSpaceOnUse">
<stop stop-color="#3CB434"/>
<stop offset="1" stop-color="#5BAB00"/>
</linearGradient>
<linearGradient id="paint5_linear" x1="24.1955" y1="8.48682" x2="24.1955" y2="69.7915" gradientUnits="userSpaceOnUse">
<stop stop-color="#3CB434"/>
<stop offset="1" stop-color="#5BAB00"/>
</linearGradient>
<linearGradient id="paint6_linear" x1="16.0612" y1="33.4395" x2="16.0612" y2="43.8598" gradientUnits="userSpaceOnUse">
<stop stop-color="#3CB434"/>
<stop offset="1" stop-color="#5BAB00"/>
</linearGradient>
<linearGradient id="paint7_linear" x1="35.7214" y1="18.0762" x2="35.7214" y2="25.602" gradientUnits="userSpaceOnUse">
<stop stop-color="#3CB434"/>
<stop offset="1" stop-color="#5BAB00"/>
</linearGradient>
<clipPath id="clip0">
<rect width="76" height="76" fill="white"/>
</clipPath>
</defs>
</svg>
