<svg width="76" height="76" viewBox="0 0 76 76" fill="none" xmlns="http://www.w3.org/2000/svg">
<g clip-path="url(#clip0)">
<path d="M51.1997 31.1433C57.6448 29.6824 62.8658 24.9514 64.8157 14.9749C64.8569 14.7647 64.903 14.5282 64.926 14.4409C65.1277 13.9285 64.8999 13.3405 64.3947 13.1018C63.8682 12.853 63.2393 13.0783 62.9906 13.605C62.7271 14.1628 62.5653 16.4177 61.3149 19.5464C59.48 18.6764 58.0381 16.3413 58.0381 14.0554C58.0381 13.4729 57.5658 13.0007 56.9834 13.0007C56.401 13.0007 55.9287 13.4729 55.9287 14.0554C55.9287 17.2161 57.8376 20.2549 60.4339 21.4645C58.633 24.9003 56.0545 27.2533 52.717 28.4975C53.9506 25.8967 54.3422 23.9397 54.8263 21.3307C54.974 20.8598 54.7736 20.3349 54.3237 20.0899C53.8118 19.8114 53.1716 20.0004 52.8931 20.512C52.6211 21.0116 52.661 22.617 51.6592 25.5121C51.5652 25.4582 49.2995 24.9888 48.2854 22.5419C47.7211 21.18 47.7755 19.6425 48.4348 18.3237C48.6952 17.8027 48.4839 17.1692 47.9628 16.9088C47.4418 16.6481 46.8084 16.8596 46.548 17.3806C45.6151 19.2468 45.5382 21.4224 46.3367 23.3495C47.6416 26.4981 50.8554 27.4648 50.8664 27.4714C49.5521 30.2908 47.7171 32.4261 45.3974 33.8238C43.6106 34.9012 41.5184 35.5365 39.1641 35.7225C39.5432 34.7391 40.0434 33.8109 40.671 32.9294C41.5508 31.6957 42.5498 30.7148 43.4313 29.8495C44.1215 29.1719 44.7175 28.5868 45.1736 27.9737C45.5212 27.5064 45.4243 26.8457 44.9569 26.498C44.4895 26.1503 43.8289 26.2474 43.4812 26.7147C43.123 27.1963 42.5811 27.7283 41.9537 28.3442C41.3112 28.975 40.5562 29.7171 39.8163 30.5964C37.3175 27.1631 34.5397 21.1461 38.8769 14.6403C39.1999 14.1557 39.069 13.5009 38.5844 13.1778C38.0998 12.8547 37.4449 12.9856 37.1219 13.4703C35.5463 15.8336 34.6765 18.2975 34.5156 20.8366C30.9244 17.8726 29.8353 14.1513 29.387 13.4736C29.0656 12.9876 28.4111 12.8544 27.9256 13.1756C27.4447 13.4936 27.309 14.1378 27.6178 14.622C28.021 15.3621 29.6359 20.2558 34.6078 23.5243C34.7183 24.3767 34.9045 25.2363 35.1691 26.1022C35.6037 27.5242 36.1931 28.7721 36.7794 29.8021C36.3496 29.7984 35.9216 29.8489 35.4937 29.9567C34.2671 30.2656 33.2394 31.0022 32.5632 32.0139C30.6284 30.2266 29.5078 27.752 29.5651 24.474C29.5834 23.4258 28.9383 23.0065 28.2822 23.1497C27.7518 23.2656 27.4026 23.7617 27.4582 24.2894C27.4622 25.013 27.397 26.2265 27.8257 27.9556C25.2744 26.6401 22.9751 24.701 21.1094 22.3501L23.1226 18.3237C23.3831 17.8027 23.1719 17.1692 22.6508 16.9086C22.1299 16.6481 21.4963 16.8593 21.2359 17.3803L19.7237 20.4046C18.4432 18.3897 17.4625 16.1539 16.874 13.7998C16.7328 13.2346 16.1597 12.8912 15.5951 13.0323C15.03 13.1735 14.6864 13.7462 14.8277 14.3112C15.7604 18.0423 17.618 21.6646 20.3294 24.7196C18.4604 25.2977 15.2898 25.9246 12.7998 23.4345C12.3878 23.0226 11.7202 23.0226 11.3082 23.4345C10.8963 23.8463 10.8963 24.5142 11.3082 24.9261C14.3217 27.9396 17.9284 27.7692 21.9708 26.3966C24.0449 28.3138 26.4038 29.7948 28.9148 30.748C29.6383 32.0567 30.6167 33.2028 31.833 34.1644C31.5905 36.9636 31.3857 38.6209 31.2079 39.2231C31.2054 39.2315 31.203 39.2397 31.2009 39.248C30.9234 40.2809 30.5074 41.1436 29.9087 41.9229C26.0657 41.1049 23.2335 37.6566 23.2335 33.6725C23.2335 33.09 22.7612 32.6178 22.1789 32.6178C21.5965 32.6178 21.1242 33.09 21.1242 33.6725C21.1242 35.8239 21.7826 37.91 22.9931 39.6626C19.4457 40.7004 15.1902 40.7513 12.9972 36.3648C12.7366 35.8438 12.1032 35.6325 11.5823 35.8931C11.0614 36.1535 10.8501 36.787 11.1105 37.308C13.7558 42.5996 18.9425 43.3009 24.4944 41.3979C25.5713 42.3985 26.8411 43.1606 28.2198 43.6382C28.2127 43.6446 28.2054 43.6512 28.1982 43.6575C27.6924 44.1074 27.1696 44.5724 26.7046 45.1187C23.8152 48.3709 22.433 52.3115 22.5964 56.8313C22.7235 60.3491 23.7706 63.1205 24.1146 64.0313C24.307 64.5398 23.9886 63.7094 24.433 64.8909H12.054C11.4716 64.8909 10.9994 65.363 10.9994 65.9455C10.9994 66.528 11.4716 67.0002 12.054 67.0002H48.335C48.9174 67.0002 49.3897 66.528 49.3897 65.9455C49.3897 65.363 48.9174 64.8909 48.335 64.8909H38.5599C38.1817 64.3123 37.8033 63.7452 37.4347 63.1933C34.2715 58.4566 31.7486 54.6772 33.9846 50.5472H41.1633C42.9006 50.5472 44.6642 50.1285 46.3118 49.2038C49.0744 49.1189 51.6325 50.641 52.8761 53.1282C53.1366 53.6494 53.7703 53.8603 54.2912 53.5999C54.8121 53.3394 55.0233 52.7058 54.7629 52.1848C53.5306 49.72 51.3023 47.988 48.7212 47.3558C49.7791 46.2688 50.5994 44.9597 51.1099 43.5159C51.3039 42.9667 51.0161 42.3642 50.4669 42.17C49.9179 41.9762 49.3151 42.2637 49.1211 42.8128C48.4652 44.6679 47.1698 46.2455 45.4728 47.2555C44.8776 47.6103 44.2469 47.8855 43.5902 48.0823C43.4316 46.5562 43.9615 45.0218 45.0731 43.9102C45.4849 43.4984 45.4849 42.8306 45.0731 42.4186C44.6611 42.0067 43.9935 42.0067 43.5815 42.4186C41.983 44.0171 41.2375 46.2363 41.5063 48.4306C41.3921 48.4351 41.2776 48.4378 41.1633 48.4378H35.4432C37.4677 45.5334 38.4153 41.6272 38.2895 40.0589C38.3237 39.3004 38.4111 38.5729 38.5485 37.8715C41.3111 37.7598 43.7914 37.113 45.9394 35.9423C47.4113 36.753 50.1448 37.9696 53.2787 37.9696C54.1235 37.9696 54.9975 37.8805 55.8837 37.6719C58.0016 39.8293 60.9039 41.055 63.9444 41.055C64.5268 41.055 64.999 40.5828 64.999 40.0003C64.999 39.4178 64.5268 38.9456 63.9444 38.9456C61.811 38.9456 59.7613 38.2033 58.1327 36.8728C59.279 36.3179 60.4219 35.5223 61.5262 34.418C61.938 34.0062 61.938 33.3383 61.5262 32.9264C61.1142 32.5146 60.4466 32.5146 60.0346 32.9264C55.7797 37.1814 50.8595 35.9641 47.9638 34.6112C49.1878 33.6528 50.2684 32.4946 51.1997 31.1433V31.1433ZM33.4109 47.6493C28.6992 53.4532 31.6808 58.3756 35.6805 64.3649C35.7968 64.5389 35.9139 64.7143 36.0316 64.8911H26.6896C26.685 64.8785 26.0925 63.2975 26.0881 63.286C24.6719 59.5372 23.0747 52.3731 28.2889 46.5118C28.2944 46.5057 28.2999 46.4994 28.3052 46.4931C28.6763 46.0557 29.1251 45.6565 29.6003 45.2338C31.1845 43.8246 32.5067 42.5067 33.2348 39.8075C33.4022 39.2343 33.6211 38.0666 33.9739 33.8859C34.289 32.9468 35.0424 32.2458 36.0085 32.0025C36.8648 31.7866 37.7445 31.967 38.4366 32.4828C37.0264 34.7388 36.284 37.2413 36.1763 40.1044C36.0853 42.565 35.1211 45.3941 33.4109 47.6493V47.6493Z" fill="url(#paint0_linear)"/>
<path d="M53.082 67C53.6645 67 54.1367 66.5278 54.1367 65.9453C54.1367 65.3628 53.6645 64.8906 53.082 64.8906C52.4995 64.8906 52.0273 65.3628 52.0273 65.9453C52.0273 66.5278 52.4995 67 53.082 67Z" fill="url(#paint1_linear)"/>
<path d="M63.9453 64.8906H57.8281C57.2457 64.8906 56.7734 65.3628 56.7734 65.9453C56.7734 66.5278 57.2457 67 57.8281 67H63.9453C64.5277 67 65 66.5278 65 65.9453C65 65.3628 64.5277 64.8906 63.9453 64.8906V64.8906Z" fill="url(#paint2_linear)"/>
</g>
<defs>
<linearGradient id="paint0_linear" x1="37.9991" y1="13.0005" x2="37.9991" y2="67.0002" gradientUnits="userSpaceOnUse">
<stop stop-color="#3CB434"/>
<stop offset="1" stop-color="#5BAB00"/>
</linearGradient>
<linearGradient id="paint1_linear" x1="53.082" y1="64.8906" x2="53.082" y2="67" gradientUnits="userSpaceOnUse">
<stop stop-color="#3CB434"/>
<stop offset="1" stop-color="#5BAB00"/>
</linearGradient>
<linearGradient id="paint2_linear" x1="60.8867" y1="64.8906" x2="60.8867" y2="67" gradientUnits="userSpaceOnUse">
<stop stop-color="#3CB434"/>
<stop offset="1" stop-color="#5BAB00"/>
</linearGradient>
<clipPath id="clip0">
<rect width="54" height="54" fill="white" transform="translate(11 13)"/>
</clipPath>
</defs>
</svg>
