<svg width="76" height="76" viewBox="0 0 76 76" fill="none" xmlns="http://www.w3.org/2000/svg">
<g clip-path="url(#clip0)">
<path d="M57.3066 69.9736C58.0488 69.9736 58.6426 69.3799 58.6426 68.6377V10.0791C58.6426 9.33691 58.0488 8.74316 57.3066 8.74316C56.5645 8.74316 55.9707 9.33691 55.9707 10.0791V68.6377C55.9707 69.365 56.5793 69.9736 57.3066 69.9736Z" fill="url(#paint0_linear)"/>
<path d="M49.8397 14.4576H64.7725C65.3068 14.4576 65.7373 14.0271 65.7373 13.4928V9.58887C65.7373 9.05449 65.3068 8.62402 64.7725 8.62402C64.2381 8.62402 63.8076 9.05449 63.8076 9.58887V12.5279H50.8045V9.58887C50.8045 9.05449 50.374 8.62402 49.8397 8.62402C49.3053 8.62402 48.8748 9.05449 48.8748 9.58887V13.4928C48.8748 14.0271 49.3053 14.4576 49.8397 14.4576Z" fill="url(#paint1_linear)"/>
<path d="M47.1236 24.9674H67.4893C68.0236 24.9674 68.4541 24.5369 68.4541 24.0025V20.0986C68.4541 19.5643 68.0236 19.1338 67.4893 19.1338C66.9549 19.1338 66.5244 19.5643 66.5244 20.0986V23.0377H48.0885V20.0986C48.0885 19.5643 47.658 19.1338 47.1236 19.1338C46.5893 19.1338 46.1588 19.5643 46.1588 20.0986V24.0025C46.1588 24.5369 46.5893 24.9674 47.1236 24.9674Z" fill="url(#paint2_linear)"/>
<path d="M33.541 43.0025C34.2832 43.0025 34.877 42.4088 34.877 41.6666V24.4775C34.877 23.7354 34.2832 23.1416 33.541 23.1416C32.7988 23.1416 32.2051 23.7354 32.2051 24.4775V41.6666C32.2051 42.4088 32.7988 43.0025 33.541 43.0025Z" fill="url(#paint3_linear)"/>
<path d="M26.075 28.8712H41.0078C41.5422 28.8712 41.9727 28.4407 41.9727 27.9063V24.0024C41.9727 23.4681 41.5422 23.0376 41.0078 23.0376C40.4734 23.0376 40.043 23.4681 40.043 24.0024V26.9415H27.0398V24.0024C27.0398 23.4681 26.6094 23.0376 26.075 23.0376C25.5406 23.0376 25.1102 23.4681 25.1102 24.0024V27.9063C25.1102 28.4407 25.5406 28.8712 26.075 28.8712Z" fill="url(#paint4_linear)"/>
<path d="M60.2456 34.482C60.3791 34.482 60.5127 34.4523 60.6315 34.3781C63.5112 32.6265 65.7971 29.9546 67.0737 26.8374C67.2221 26.4515 67.044 26.021 66.6729 25.8726C66.287 25.7242 65.8565 25.9023 65.7081 26.2734C64.5502 29.0937 62.487 31.5132 59.8745 33.1015C59.5182 33.3093 59.4143 33.7695 59.6221 34.1257C59.7557 34.3484 60.0081 34.482 60.2456 34.482Z" fill="url(#paint5_linear)"/>
<path d="M52.4525 36.6638C53.1947 36.6638 53.9369 36.6192 54.6642 36.5153C55.065 36.4559 55.347 36.0848 55.3025 35.6841C55.2431 35.2833 54.872 35.0013 54.4713 35.0458C53.8181 35.1349 53.1353 35.1794 52.4674 35.1794C48.2814 35.1794 44.3181 33.3536 41.5869 30.1622C41.3197 29.8505 40.8447 29.8208 40.5478 30.088C40.2361 30.3552 40.2064 30.8302 40.4736 31.127C43.4572 34.645 47.8213 36.6638 52.4525 36.6638Z" fill="url(#paint6_linear)"/>
<path d="M36.0649 33.6954C41.2751 33.6954 46.0548 30.8454 48.5337 26.2736C48.7266 25.9173 48.593 25.4572 48.2368 25.2642C47.8805 25.0712 47.4204 25.2048 47.2274 25.5611C45.0008 29.6579 40.7258 32.2111 36.0649 32.2111C33.4227 32.2111 30.8696 31.4095 28.7172 29.8806C28.3907 29.6431 27.9157 29.7173 27.6782 30.0587C27.4407 30.4001 27.5149 30.8603 27.8563 31.0978C30.2758 32.8048 33.111 33.6954 36.0649 33.6954Z" fill="url(#paint7_linear)"/>
<path d="M6.58519 50.1569C7.11957 50.1569 7.55004 49.7265 7.55004 49.1921C7.55004 42.6015 12.9235 37.228 19.5141 37.228C22.5571 37.228 25.4516 38.371 27.6633 40.4343C29.875 42.4976 31.211 45.2733 31.4336 48.2866C31.4782 48.821 31.9383 49.2218 32.4727 49.1773C33.0071 49.1327 33.4079 48.6726 33.3633 48.1382C33.0961 44.6499 31.5524 41.414 28.9844 39.0241C26.4016 36.6194 23.0469 35.2983 19.5141 35.2983C11.8547 35.2983 5.62035 41.5327 5.62035 49.1921C5.62035 49.7265 6.05082 50.1569 6.58519 50.1569Z" fill="url(#paint8_linear)"/>
<path d="M42.3438 64.8077C42.6258 64.8077 42.893 64.689 43.0859 64.4515C44.9117 62.2397 45.9062 59.4491 45.9062 56.5843C45.9062 49.7562 40.3547 44.2046 33.5266 44.2046C32.9031 44.2046 32.2945 44.2491 31.6859 44.3382C31.1516 44.4124 30.7953 44.9022 30.8695 45.4366C30.9438 45.9562 31.4336 46.3272 31.968 46.253C32.4727 46.1788 33.007 46.1343 33.5266 46.1343C39.2859 46.1343 43.9766 50.8249 43.9766 56.5843C43.9766 59.0038 43.1305 61.364 41.5867 63.2343C41.2453 63.6499 41.3047 64.2585 41.7203 64.5999C41.9133 64.7335 42.1211 64.8077 42.3438 64.8077Z" fill="url(#paint9_linear)"/>
<path d="M6.05077 67.1085C6.25858 67.1085 6.46639 67.0343 6.64452 66.9007C7.06014 66.5742 7.13436 65.9656 6.79295 65.5499C5.10077 63.4124 4.1953 60.8445 4.1953 58.1132C4.1953 54.0015 6.25858 50.2312 9.73201 48.0195C10.1773 47.7374 10.3109 47.1288 10.0289 46.6835C9.74685 46.2382 9.13826 46.1046 8.69295 46.3866C4.6703 48.9546 2.26562 53.3335 2.26562 58.0984C2.26562 61.2749 3.30468 64.2585 5.27889 66.7374C5.4867 66.9898 5.76874 67.1085 6.05077 67.1085Z" fill="url(#paint10_linear)"/>
<path d="M24.3239 67.9991C24.3684 67.9991 24.4278 67.9991 24.4723 67.9842C24.9919 67.8952 25.3629 67.4053 25.2739 66.8858C25.259 66.7522 24.7544 63.6944 23.5223 59.9092C21.8153 54.6694 19.6184 50.8249 16.9911 48.4796C16.5903 48.1233 15.9817 48.153 15.6255 48.5538C15.2692 48.9546 15.2989 49.5632 15.6997 49.9194C18.0301 51.9975 20.1083 55.6639 21.6817 60.5178C22.8692 64.1397 23.359 67.1678 23.359 67.1975C23.4481 67.6577 23.8489 67.9991 24.3239 67.9991Z" fill="url(#paint11_linear)"/>
<path d="M24.5464 67.8653C25.0065 67.8653 25.4222 67.5239 25.4964 67.0638C26.1495 63.1153 27.5151 60.6513 28.5542 59.2857C29.6675 57.8161 30.6323 57.2521 30.6472 57.2372C31.1073 56.97 31.2706 56.3911 31.0183 55.931C30.7659 55.4708 30.1722 55.3075 29.712 55.5599C29.519 55.6638 25.0214 58.2318 23.5964 66.7521C23.5073 67.2716 23.8636 67.7763 24.3831 67.8653C24.4425 67.8653 24.487 67.8653 24.5464 67.8653Z" fill="url(#paint12_linear)"/>
<path d="M22.2304 59.078C22.75 59.078 23.1804 58.6623 23.1953 58.128C23.2843 53.6897 25.0804 51.1366 25.0953 51.1217C25.407 50.6912 25.3179 50.0827 24.8875 49.7709C24.457 49.4592 23.8632 49.5483 23.5367 49.9788C23.4476 50.0975 21.3546 53.0069 21.2656 58.0983C21.2507 58.6326 21.6812 59.078 22.2156 59.078C22.2304 59.078 22.2304 59.078 22.2304 59.078Z" fill="url(#paint13_linear)"/>
</g>
<defs>
<linearGradient id="paint0_linear" x1="57.3066" y1="8.74316" x2="57.3066" y2="69.9736" gradientUnits="userSpaceOnUse">
<stop stop-color="#3CB434"/>
<stop offset="1" stop-color="#5BAB00"/>
</linearGradient>
<linearGradient id="paint1_linear" x1="57.3061" y1="8.62402" x2="57.3061" y2="14.4576" gradientUnits="userSpaceOnUse">
<stop stop-color="#3CB434"/>
<stop offset="1" stop-color="#5BAB00"/>
</linearGradient>
<linearGradient id="paint2_linear" x1="57.3064" y1="19.1338" x2="57.3064" y2="24.9674" gradientUnits="userSpaceOnUse">
<stop stop-color="#3CB434"/>
<stop offset="1" stop-color="#5BAB00"/>
</linearGradient>
<linearGradient id="paint3_linear" x1="33.541" y1="23.1416" x2="33.541" y2="43.0025" gradientUnits="userSpaceOnUse">
<stop stop-color="#3CB434"/>
<stop offset="1" stop-color="#5BAB00"/>
</linearGradient>
<linearGradient id="paint4_linear" x1="33.5414" y1="23.0376" x2="33.5414" y2="28.8712" gradientUnits="userSpaceOnUse">
<stop stop-color="#3CB434"/>
<stop offset="1" stop-color="#5BAB00"/>
</linearGradient>
<linearGradient id="paint5_linear" x1="63.3209" y1="25.8203" x2="63.3209" y2="34.482" gradientUnits="userSpaceOnUse">
<stop stop-color="#3CB434"/>
<stop offset="1" stop-color="#5BAB00"/>
</linearGradient>
<linearGradient id="paint6_linear" x1="47.7995" y1="29.9062" x2="47.7995" y2="36.6638" gradientUnits="userSpaceOnUse">
<stop stop-color="#3CB434"/>
<stop offset="1" stop-color="#5BAB00"/>
</linearGradient>
<linearGradient id="paint7_linear" x1="38.081" y1="25.1758" x2="38.081" y2="33.6954" gradientUnits="userSpaceOnUse">
<stop stop-color="#3CB434"/>
<stop offset="1" stop-color="#5BAB00"/>
</linearGradient>
<linearGradient id="paint8_linear" x1="19.4935" y1="35.2983" x2="19.4935" y2="50.1569" gradientUnits="userSpaceOnUse">
<stop stop-color="#3CB434"/>
<stop offset="1" stop-color="#5BAB00"/>
</linearGradient>
<linearGradient id="paint9_linear" x1="38.383" y1="44.2046" x2="38.383" y2="64.8077" gradientUnits="userSpaceOnUse">
<stop stop-color="#3CB434"/>
<stop offset="1" stop-color="#5BAB00"/>
</linearGradient>
<linearGradient id="paint10_linear" x1="6.22119" y1="46.2388" x2="6.22119" y2="67.1085" gradientUnits="userSpaceOnUse">
<stop stop-color="#3CB434"/>
<stop offset="1" stop-color="#5BAB00"/>
</linearGradient>
<linearGradient id="paint11_linear" x1="20.3322" y1="48.2314" x2="20.3322" y2="67.9991" gradientUnits="userSpaceOnUse">
<stop stop-color="#3CB434"/>
<stop offset="1" stop-color="#5BAB00"/>
</linearGradient>
<linearGradient id="paint12_linear" x1="27.3597" y1="55.4414" x2="27.3597" y2="67.8653" gradientUnits="userSpaceOnUse">
<stop stop-color="#3CB434"/>
<stop offset="1" stop-color="#5BAB00"/>
</linearGradient>
<linearGradient id="paint13_linear" x1="23.273" y1="49.5854" x2="23.273" y2="59.078" gradientUnits="userSpaceOnUse">
<stop stop-color="#3CB434"/>
<stop offset="1" stop-color="#5BAB00"/>
</linearGradient>
<clipPath id="clip0">
<rect width="76" height="76" fill="white" transform="matrix(-1 0 0 1 76 0)"/>
</clipPath>
</defs>
</svg>
